<?xml version="1.0" encoding="UTF-8" standalone="no"?>
<svg
   viewBox="0 0 2666.6667 2666.6667"
   height="2666.6667"
   width="2666.6667"
   xml:space="preserve"
   id="svg2"
   version="1.1"
   sodipodi:docname="logo-mtl.svg"
   inkscape:version="1.3.2 (091e20e, 2023-11-25)"
   xmlns:inkscape="http://www.inkscape.org/namespaces/inkscape"
   xmlns:sodipodi="http://sodipodi.sourceforge.net/DTD/sodipodi-0.dtd"
   xmlns="http://www.w3.org/2000/svg"
   xmlns:svg="http://www.w3.org/2000/svg"
   xmlns:rdf="http://www.w3.org/1999/02/22-rdf-syntax-ns#"
   xmlns:cc="http://creativecommons.org/ns#"
   xmlns:dc="http://purl.org/dc/elements/1.1/"><sodipodi:namedview
     id="namedview1"
     pagecolor="#ffffff"
     bordercolor="#000000"
     borderopacity="0.25"
     inkscape:showpageshadow="2"
     inkscape:pageopacity="0.0"
     inkscape:pagecheckerboard="0"
     inkscape:deskcolor="#d1d1d1"
     inkscape:zoom="0.088499997"
     inkscape:cx="1333.3334"
     inkscape:cy="1333.3334"
     inkscape:window-width="1440"
     inkscape:window-height="449"
     inkscape:window-x="0"
     inkscape:window-y="25"
     inkscape:window-maximized="0"
     inkscape:current-layer="svg2" /><metadata
     id="metadata8"><rdf:RDF><cc:Work
         rdf:about=""><dc:format>image/svg+xml</dc:format><dc:type
           rdf:resource="http://purl.org/dc/dcmitype/StillImage" /></cc:Work></rdf:RDF></metadata><defs
     id="defs6"><clipPath
       id="clipPath24"
       clipPathUnits="userSpaceOnUse"><path
         id="path22"
         d="M 0,2000 H 2000 V 0 H 0 Z" /></clipPath></defs><g
     transform="matrix(1.3333333,0,0,-1.3333333,0,2666.6667)"
     id="g10"><g
       transform="translate(1471.8606,694.7438)"
       id="g14"><path
         id="path16"
         style="fill:#ffffff;fill-opacity:1;fill-rule:nonzero;stroke:none"
         d="m 0,0 -0.646,-1.165 -3.673,-6.636 -7.138,-2.562 -187.722,-67.371 -3.299,-1.184 -3.504,0.001 -511.434,0.087 h -2.942 l -2.819,0.843 -207.857,62.122 -7.494,2.239 -4.016,6.712 -1.393,2.331 -4.024,6.724 1.583,7.676 38.918,188.705 1.439,6.973 5.501,4.518 104.543,85.846 91.884,242.364 10.694,28.205 21.941,-20.698 8.591,-8.104 67.907,138.481 1.134,2.311 1.677,1.952 96.582,112.305 17.057,19.835 14.801,-21.572 104.959,-152.962 107.65,-10.912 13.208,-1.339 3.97,-12.668 45.233,-144.318 34.029,6.35 19.714,3.678 3.752,-19.7 40.046,-210.237 77.597,-162.256 1.057,-2.209 0.496,-2.397 14.099,-68.141 1.51,-7.303 z" /></g><g
       id="g18"><g
         clip-path="url(#clipPath24)"
         id="g20"><g
           transform="translate(1471.8606,694.7438)"
           id="g26"><path
             id="path28"
             style="fill:#fdc300;fill-opacity:1;fill-rule:nonzero;stroke:none"
             d="m 0,0 -0.646,-1.165 -3.673,-6.636 -7.138,-2.562 -187.722,-67.371 -3.299,-1.184 -3.504,0.001 -511.434,0.087 h -2.942 l -2.819,0.843 -207.857,62.122 -7.494,2.239 -4.016,6.712 -1.393,2.331 -4.024,6.724 1.583,7.676 38.918,188.705 1.439,6.973 5.501,4.518 104.543,85.846 91.884,242.364 10.694,28.205 21.941,-20.698 8.591,-8.104 67.907,138.481 1.134,2.311 1.677,1.952 96.582,112.305 17.057,19.835 14.801,-21.572 104.959,-152.962 107.65,-10.912 13.208,-1.339 3.97,-12.668 45.233,-144.318 34.029,6.35 19.714,3.678 3.752,-19.7 40.046,-210.237 77.597,-162.256 1.057,-2.209 0.496,-2.397 14.099,-68.141 1.51,-7.303 z m -471.864,1038.105 c -404.09,0 -732.845,-328.755 -732.845,-732.852 0,-404.091 328.755,-732.846 732.845,-732.846 404.097,0 732.852,328.755 732.852,732.846 0,404.097 -328.755,732.852 -732.852,732.852" /></g><g
           transform="translate(1000,1750)"
           id="g30"><path
             id="path32"
             style="fill:#000000;fill-opacity:1;fill-rule:nonzero;stroke:none"
             d="M 0,0 C -200.332,0 -388.674,-78.014 -530.33,-219.67 -671.987,-361.326 -750,-549.668 -750,-750 c 0,-200.332 78.013,-388.674 219.67,-530.33 C -388.674,-1421.987 -200.332,-1500 0,-1500 c 200.332,0 388.674,78.013 530.33,219.67 C 671.986,-1138.674 750,-950.332 750,-750 750,-549.668 671.986,-361.326 530.33,-219.67 388.674,-78.014 200.332,0 0,0 m 0,-34.31 c 395.264,0 715.69,-320.425 715.69,-715.69 0,-395.265 -320.426,-715.69 -715.69,-715.69 -395.265,0 -715.69,320.425 -715.69,715.69 0,395.265 320.425,715.69 715.69,715.69" /></g><g
           transform="translate(1604.7269,838.0451)"
           id="g34"><path
             id="path36"
             style="fill:#000000;fill-opacity:1;fill-rule:nonzero;stroke:none"
             d="m 0,0 c -11.45,-59.991 -35.225,-117.713 -67.364,-169.968 -32.362,-52.12 -73.337,-99.196 -121.8,-136.361 42.509,43.717 80.695,90.787 112.322,142.221 C -44.949,-112.841 -19.928,-57.629 0,0" /></g><g
           transform="translate(397.7674,838.0451)"
           id="g38"><path
             id="path40"
             style="fill:#000000;fill-opacity:1;fill-rule:nonzero;stroke:none"
             d="m 0,0 c 19.928,-57.629 44.949,-112.841 76.842,-164.108 31.627,-51.434 69.813,-98.504 112.322,-142.221 -48.463,37.165 -89.438,84.241 -121.799,136.361 C 35.225,-117.713 11.45,-59.991 0,0" /></g><g
           transform="translate(370.9403,893.1535)"
           id="g42"><path
             id="path44"
             style="fill:#000000;fill-opacity:1;fill-rule:nonzero;stroke:none"
             d="m 0,0 14.112,2.289 -5.57,34.347 20.942,3.395 5.569,-34.346 26.35,4.279 4.501,-27.763 -82.336,-13.359 -10.862,66.933 20.941,3.396 z" /></g><g
           transform="translate(362.7128,985.6916)"
           id="g46"><path
             id="path48"
             style="fill:#000000;fill-opacity:1;fill-rule:nonzero;stroke:none"
             d="m 0,0 0.223,-10.248 19.551,0.43 -0.231,10.256 C 19.374,8.181 15.595,11.8 9.518,11.661 3.442,11.531 -0.177,7.751 0,0 m 40.822,-1.713 0.169,-7.628 20.972,0.46 0.623,-28.131 -83.435,-1.844 -0.884,40.169 c -0.514,23.239 11.316,38.288 30.621,38.718 12.038,0.261 21.226,-5.254 26.572,-15.156 l 25.359,18.091 0.66,-30.037 z" /></g><g
           transform="translate(411.4247,1105.8773)"
           id="g50"><path
             id="path52"
             style="fill:#000000;fill-opacity:1;fill-rule:nonzero;stroke:none"
             d="m 0,0 21.064,-2.474 -8.104,-68.885 -82.844,9.749 7.921,67.341 21.071,-2.481 -4.693,-39.878 9.702,-1.145 4.125,35.03 20.12,-2.366 -4.126,-35.03 10.894,-1.283 z" /></g><g
           transform="translate(430.9986,1183.9115)"
           id="g54"><path
             id="path56"
             style="fill:#000000;fill-opacity:1;fill-rule:nonzero;stroke:none"
             d="M 0,0 20.534,-5.301 3.211,-72.434 -77.535,-51.6 l 16.939,65.635 20.534,-5.293 -10.033,-38.879 9.457,-2.435 8.811,34.139 19.613,-5.062 -8.812,-34.139 10.609,-2.743 z" /></g><g
           transform="translate(465.5534,1234.3213)"
           id="g58"><path
             id="path60"
             style="fill:#000000;fill-opacity:1;fill-rule:nonzero;stroke:none"
             d="m 0,0 -14.002,17.49 c 7.752,4.827 15.229,12.761 19.468,20.893 3.682,7.081 3.522,10.392 0.982,11.712 -9.296,4.831 -23.073,-39.967 -50.659,-25.623 -13.739,7.151 -18.945,24.492 -7.02,47.43 5.167,9.939 12.614,19.088 20.963,24.549 L -16.101,79.547 C -23.594,74.181 -28.961,68.238 -32.315,61.792 -36.104,54.506 -35.202,51.079 -32.67,49.759 -23.79,45.142 -9.914,89.891 17.354,75.71 30.882,68.674 36.307,51.21 24.374,28.28 17.944,15.916 8.396,5.037 0,0" /></g><g
           transform="translate(511.7889,1377.9252)"
           id="g62"><path
             id="path64"
             style="fill:#000000;fill-opacity:1;fill-rule:nonzero;stroke:none"
             d="m 0,0 c -10.495,7.66 -21.77,5.561 -27.885,-2.817 -6.115,-8.378 -4.681,-19.762 5.814,-27.422 10.503,-7.66 21.778,-5.553 27.885,2.825 C 11.93,-19.036 10.495,-7.66 0,0 m -38.799,-53.158 c -20.412,14.902 -23.507,41.804 -7.486,63.763 16.028,21.958 42.594,27.216 63.013,12.314 C 37.14,8.025 40.235,-18.885 24.214,-40.844 8.186,-62.794 -18.38,-68.06 -38.799,-53.158" /></g><g
           transform="translate(535.6424,1408.3746)"
           id="g66"><path
             id="path68"
             style="fill:#000000;fill-opacity:1;fill-rule:nonzero;stroke:none"
             d="M 0,0 C -18.045,18.175 -16.776,44.79 2.242,63.683 13.824,75.18 27.148,80.017 40.54,78.204 L 39.111,54.454 C 31.279,55.41 24.617,53.829 19.287,48.546 11.009,40.315 11.14,29.028 20.122,19.98 c 8.982,-9.04 20.266,-9.248 28.551,-1.025 5.323,5.291 6.946,11.94 6.05,19.778 l 23.761,1.269 C 80.206,26.602 75.275,13.305 63.693,1.808 44.675,-17.086 18.053,-18.168 0,0" /></g><g
           transform="translate(578.0381,1505.9717)"
           id="g70"><path
             id="path72"
             style="fill:#000000;fill-opacity:1;fill-rule:nonzero;stroke:none"
             d="M 0,0 21.994,17.536 74.003,-47.72 52.002,-65.248 Z" /></g><g
           transform="translate(707.7781,1521.1941)"
           id="g74"><path
             id="path76"
             style="fill:#000000;fill-opacity:1;fill-rule:nonzero;stroke:none"
             d="m 0,0 11.469,-17.838 -58.326,-37.516 -45.124,70.157 57.031,36.683 11.469,-17.845 -33.776,-21.724 5.289,-8.213 29.661,19.076 10.965,-17.037 -29.669,-19.076 5.932,-9.225 z" /></g><g
           transform="translate(716.8566,1570.6346)"
           id="g78"><path
             id="path80"
             style="fill:#000000;fill-opacity:1;fill-rule:nonzero;stroke:none"
             d="M 0,0 -22.129,-10.384 -31.399,9.373 38.33,42.082 47.6,22.333 25.47,11.95 51.655,-43.854 26.177,-55.804 Z" /></g><g
           transform="translate(831.014,1581.5393)"
           id="g82"><path
             id="path84"
             style="fill:#000000;fill-opacity:1;fill-rule:nonzero;stroke:none"
             d="m 0,0 9.095,-28.874 -26.832,-8.455 -9.199,29.224 -45.879,40.921 28.315,8.913 24.917,-22.396 7.716,32.667 25.923,8.161 z" /></g><g
           transform="translate(957.4718,1625.5845)"
           id="g86"><path
             id="path88"
             style="fill:#000000;fill-opacity:1;fill-rule:nonzero;stroke:none"
             d="m 0,0 c -0.522,6.053 -4.52,9.42 -12.233,8.759 l -10.207,-0.878 1.668,-19.463 10.207,0.878 C -2.852,-10.043 0.514,-6.053 0,0 m 28.25,2.426 c 1.647,-19.232 -12.039,-32.6 -35.185,-34.583 l -11.982,-1.027 1.746,-20.42 -28.017,-2.399 -7.124,83.088 40.008,3.433 C 10.842,32.501 26.602,21.658 28.25,2.426" /></g><g
           transform="translate(1038.4868,1635.4639)"
           id="g90"><path
             id="path92"
             style="fill:#000000;fill-opacity:1;fill-rule:nonzero;stroke:none"
             d="m 0,0 -10.229,0.639 -1.211,-19.516 10.23,-0.631 c 7.729,-0.478 11.649,2.98 12.027,9.045 C 11.195,-4.397 7.73,-0.478 0,0 m -5.143,-40.529 -7.615,0.472 -1.299,-20.934 -28.081,1.741 5.167,83.286 40.097,-2.493 C 26.331,20.109 40.328,7.055 39.136,-12.216 38.385,-24.239 32.118,-32.926 21.807,-37.421 l 15.89,-26.783 -29.983,1.86 z" /></g><g
           transform="translate(1151.9542,1597.9059)"
           id="g94"><path
             id="path96"
             style="fill:#000000;fill-opacity:1;fill-rule:nonzero;stroke:none"
             d="M 0,0 C 2.812,12.683 -3.636,22.161 -13.753,24.401 -23.878,26.642 -33.722,20.772 -36.526,8.089 -39.338,-4.586 -32.89,-14.071 -22.773,-16.312 -12.648,-18.553 -2.804,-12.683 0,0 m -64.214,14.22 c 5.461,24.665 28.856,38.28 55.379,32.403 26.523,-5.877 41.984,-28.088 36.523,-52.753 -5.461,-24.666 -28.856,-38.273 -55.379,-32.404 -26.523,5.877 -41.984,28.096 -36.523,52.754" /></g><g
           transform="translate(1170.4921,1561.2964)"
           id="g98"><path
             id="path100"
             style="fill:#000000;fill-opacity:1;fill-rule:nonzero;stroke:none"
             d="M 0,0 20.442,11.436 C 22.65,4.759 25.595,0.725 29.95,-0.897 c 5.474,-2.051 9.736,0.168 12.12,6.534 l 11.113,29.697 -26.574,9.94 7.44,19.868 L 86.624,45.474 68.664,-2.535 C 60.644,-23.969 45.446,-30.239 24.458,-22.385 12.286,-17.836 3.631,-10.018 0,0" /></g><g
           transform="translate(1308.7527,1511.1735)"
           id="g102"><path
             id="path104"
             style="fill:#000000;fill-opacity:1;fill-rule:nonzero;stroke:none"
             d="M 0,0 -9.866,-18.773 -71.253,13.481 -32.461,87.319 27.56,55.781 17.693,37.008 -17.855,55.681 -22.397,47.037 8.826,30.625 -0.594,12.693 -31.817,29.106 -36.922,19.397 Z" /></g><g
           transform="translate(1327.514,1524.0242)"
           id="g106"><path
             id="path108"
             style="fill:#000000;fill-opacity:1;fill-rule:nonzero;stroke:none"
             d="M 0,0 C 15.003,20.783 41.491,23.859 63.233,8.15 76.475,-1.409 83.429,-13.778 83.816,-27.3 l -23.691,-2.451 c -0.33,7.89 -2.97,14.209 -9.059,18.603 -9.475,6.841 -20.601,4.875 -28.066,-5.464 -7.472,-10.339 -5.839,-21.518 3.636,-28.359 6.089,-4.401 12.917,-4.922 20.507,-2.756 l 5.123,-23.251 C 39.315,-74.868 25.381,-72.16 12.14,-62.593 -9.603,-46.892 -15.011,-20.782 0,0" /></g><g
           transform="translate(1430.0449,1469.3423)"
           id="g110"><path
             id="path112"
             style="fill:#000000;fill-opacity:1;fill-rule:nonzero;stroke:none"
             d="M 0,0 -17.65,16.897 -2.57,32.647 53.048,-20.59 37.967,-36.348 20.317,-19.45 -22.29,-63.959 -42.607,-44.509 Z" /></g><g
           transform="translate(1512.4008,1306.8628)"
           id="g114"><path
             id="path116"
             style="fill:#000000;fill-opacity:1;fill-rule:nonzero;stroke:none"
             d="M 0,0 -17.5,-12.007 -56.755,45.209 12.053,92.423 50.44,36.49 32.941,24.483 10.209,57.615 2.143,52.077 22.117,22.985 5.401,11.515 l -19.966,29.1 -9.042,-6.207 z" /></g><g
           transform="translate(1532.5585,1305.3109)"
           id="g118"><path
             id="path120"
             style="fill:#000000;fill-opacity:1;fill-rule:nonzero;stroke:none"
             d="M 0,0 41.214,20.196 53.598,-5.07 13.129,-24.897 C 1.667,-30.513 -0.461,-37.004 2.996,-44.064 c 3.465,-7.068 9.895,-9.365 21.356,-3.749 L 64.821,-27.986 76.99,-52.829 35.768,-73.018 C 13.282,-84.034 -6.276,-76.89 -17.553,-53.874 -28.831,-30.851 -22.485,-11.016 0,0" /></g><g
           transform="translate(1608.3802,1188.2135)"
           id="g122"><path
             id="path124"
             style="fill:#000000;fill-opacity:1;fill-rule:nonzero;stroke:none"
             d="m 0,0 -3.05,9.787 -18.659,-5.808 3.049,-9.787 c 2.297,-7.397 6.922,-9.825 12.729,-8.02 5.8,1.806 8.228,6.43 5.931,13.828 m -39.693,-9.61 -2.266,7.282 -20.027,-6.23 -8.358,26.857 L 9.303,43.081 21.241,4.732 c 6.906,-22.186 -0.315,-39.908 -18.744,-45.647 -11.493,-3.572 -21.84,-0.799 -29.707,7.237 l -19.374,-24.383 -8.926,28.677 z" /></g><g
           transform="translate(1613.2354,1068.6731)"
           id="g126"><path
             id="path128"
             style="fill:#000000;fill-opacity:1;fill-rule:nonzero;stroke:none"
             d="M 0,0 C 12.86,1.828 19.466,11.2 18.007,21.464 16.547,31.727 7.582,38.879 -5.278,37.051 -18.137,35.214 -24.752,25.85 -23.292,15.579 -21.825,5.316 -12.86,-1.836 0,0 M -9.28,65.128 C 15.733,68.693 36.713,51.577 40.546,24.675 44.379,-2.228 29.015,-24.521 3.995,-28.085 c -25.013,-3.557 -45.985,13.558 -49.818,40.461 -3.834,26.902 11.53,49.188 36.543,52.752" /></g><g
           transform="translate(1626.7634,976.8034)"
           id="g130"><path
             id="path132"
             style="fill:#000000;fill-opacity:1;fill-rule:nonzero;stroke:none"
             d="M 0,0 C 6.077,-0.1 9.833,3.542 9.956,11.285 L 10.125,21.533 -9.426,21.848 -9.587,11.6 C -9.71,3.856 -6.077,0.1 0,0 m -0.453,-28.37 c -19.313,0.315 -31.235,15.287 -30.859,38.533 l 0.192,12.038 -20.496,0.33 0.454,28.132 83.434,-1.344 -0.653,-40.17 C 31.251,-14.097 18.852,-28.677 -0.453,-28.37" /></g><g
           transform="translate(1583.5442,870.9831)"
           id="g134"><path
             id="path136"
             style="fill:#000000;fill-opacity:1;fill-rule:nonzero;stroke:none"
             d="M 0,0 -20.964,3.265 -10.271,71.797 72.15,58.944 61.702,-8.058 40.746,-4.786 46.93,34.892 37.273,36.398 31.842,1.544 11.823,4.671 17.262,39.524 6.43,41.214 Z" /></g><g
           transform="translate(699.3172,421.5241)"
           id="g138"><path
             id="path140"
             style="fill:#000000;fill-opacity:1;fill-rule:nonzero;stroke:none"
             d="m 0,0 c 2.965,3.825 6.422,8.227 10.371,13.221 3.948,4.985 8.104,10.201 12.452,15.633 4.356,5.423 8.743,10.885 13.167,16.37 4.425,5.493 8.597,10.601 12.53,15.341 C 42.989,57.277 37.419,53.982 31.819,50.678 26.211,47.375 20.895,44.233 15.863,41.268 10.824,38.295 6.246,35.629 2.105,33.255 -2.036,30.882 -5.377,28.969 -7.92,27.525 c -2.005,-0.799 -3.972,-1.521 -5.892,-2.174 -1.921,-0.653 -3.718,-1.153 -5.408,-1.483 -1.691,-0.338 -3.242,-0.476 -4.656,-0.422 -1.413,0.053 -2.619,0.391 -3.618,1.006 -1.337,0.829 -2.212,1.767 -2.643,2.827 -0.438,1.06 -0.299,2.158 0.415,3.295 0.146,0.238 0.292,0.461 0.453,0.654 0.154,0.199 0.354,0.391 0.6,0.568 3.902,6.929 7.912,13.874 12.03,20.834 4.117,6.96 8.235,13.766 12.368,20.426 0.968,1.567 1.943,3.142 2.919,4.709 0.968,1.568 1.951,3.096 2.942,4.594 -4.555,-3.103 -9.38,-6.268 -14.473,-9.495 -5.101,-3.226 -10.248,-6.33 -15.464,-9.326 -5.208,-2.988 -10.386,-5.769 -15.533,-8.335 -5.147,-2.566 -10.063,-4.755 -14.734,-6.56 -4.678,-1.813 -9.011,-3.142 -12.998,-3.995 -3.987,-0.853 -7.413,-1.053 -10.286,-0.584 -2.497,0.43 -4.594,0.922 -6.292,1.483 -1.69,0.553 -3.111,1.191 -4.248,1.897 -1.713,1.06 -2.773,2.197 -3.18,3.396 -0.4,1.206 -0.292,2.312 0.322,3.311 0.738,1.183 2.005,2.112 3.803,2.781 1.79,0.66 3.81,0.791 6.061,0.384 2.719,-0.5 6.284,-0.093 10.686,1.221 4.401,1.321 9.28,3.219 14.634,5.692 5.354,2.474 11.024,5.409 17.016,8.804 5.992,3.396 11.938,6.914 17.853,10.555 5.915,3.641 11.6,7.275 17.069,10.893 5.47,3.619 10.379,6.914 14.719,9.887 4.348,2.965 7.943,5.454 10.809,7.467 2.857,2.013 4.64,3.265 5.339,3.757 1.575,1.06 3.165,1.552 4.77,1.482 1.598,-0.069 3.019,-0.491 4.256,-1.26 1.713,-1.06 2.612,-2.258 2.704,-3.602 0.092,-1.337 -0.599,-3.196 -2.074,-5.578 -1.475,-3.226 -2.904,-6.245 -4.279,-9.049 -1.375,-2.796 -2.827,-5.646 -4.363,-8.55 C 22.17,86.139 20.442,83.058 18.529,79.809 16.609,76.552 14.35,72.833 11.754,68.647 9.894,65.651 7.79,62.386 5.431,58.844 3.073,55.303 0.507,51.301 -2.266,46.83 c 12.13,6.829 22.854,12.836 32.165,18.029 9.303,5.186 17.246,9.449 23.822,12.776 6.568,3.334 11.822,5.669 15.756,7.021 3.925,1.344 6.56,1.606 7.889,0.784 l 0.499,-0.315 c 0.146,-0.085 0.292,-0.162 0.454,-0.223 0.153,-0.069 0.307,-0.146 0.445,-0.231 1.145,-0.706 1.606,-1.982 1.39,-3.825 C 79.932,79.01 79.117,76.951 77.696,74.669 76.068,72.457 73.978,69.73 71.451,66.496 68.916,63.261 66.112,59.712 63.031,55.864 59.951,52.015 56.694,47.959 53.267,43.703 49.833,39.439 46.423,35.214 43.043,31.028 39.655,26.841 36.382,22.762 33.233,18.798 30.075,14.826 27.256,11.208 24.775,7.943 24.291,7.382 23.86,6.783 23.461,6.138 23.062,5.5 22.654,4.847 22.24,4.179 21.479,2.942 20.726,1.682 19.989,0.392 c -0.73,-1.291 -1.483,-2.559 -2.243,-3.788 -0.892,-1.428 -1.852,-2.827 -2.897,-4.186 -1.037,-1.36 -2.243,-2.428 -3.61,-3.196 -1.36,-0.768 -2.958,-1.091 -4.794,-0.968 -1.836,0.115 -3.971,0.93 -6.391,2.428 -1.291,0.798 -2.005,1.92 -2.167,3.364 C -2.266,-4.51 -1.567,-2.52 0,0" /></g><g
           transform="translate(785.7249,428.8911)"
           id="g142"><path
             id="path144"
             style="fill:#000000;fill-opacity:1;fill-rule:nonzero;stroke:none"
             d="m 0,0 c -2.451,0.945 -5.055,1.237 -7.797,0.891 -2.743,-0.353 -5.378,-1.191 -7.897,-2.527 -2.528,-1.337 -4.802,-3.065 -6.822,-5.193 -2.02,-2.136 -3.541,-4.525 -4.571,-7.191 -0.384,-0.991 -0.722,-2.105 -1.022,-3.341 -0.291,-1.23 -0.391,-2.451 -0.291,-3.665 0.107,-1.206 0.499,-2.335 1.175,-3.372 0.676,-1.045 1.797,-1.867 3.365,-2.474 2.396,-0.922 4.985,-1.183 7.751,-0.783 2.758,0.399 5.431,1.29 7.997,2.673 2.573,1.375 4.886,3.165 6.937,5.37 2.051,2.212 3.587,4.647 4.617,7.305 0.399,1.045 0.752,2.151 1.06,3.327 0.299,1.175 0.384,2.327 0.253,3.457 C 4.617,-4.394 4.194,-3.349 3.488,-2.381 2.781,-1.421 1.621,-0.63 0,0 m 9.388,12.207 c 1.989,-0.768 4.01,-1.852 6.084,-3.25 2.066,-1.398 3.825,-3.096 5.277,-5.093 1.444,-1.997 2.412,-4.271 2.896,-6.829 0.477,-2.558 0.139,-5.347 -1.029,-8.374 -0.607,-1.567 -1.506,-3.272 -2.696,-5.124 -1.199,-1.843 -2.635,-3.702 -4.31,-5.577 0.277,-0.829 0.707,-1.505 1.283,-2.028 0.576,-0.522 1.26,-0.929 2.043,-1.237 1.099,-0.422 2.428,-0.576 4.003,-0.461 1.574,0.108 3.257,0.392 5.047,0.838 1.79,0.445 3.633,1.029 5.531,1.736 1.89,0.707 3.703,1.452 5.439,2.22 1.736,0.768 3.334,1.514 4.778,2.243 1.452,0.73 2.673,1.36 3.649,1.882 0.507,0.223 1.022,0.231 1.544,0.031 0.73,-0.284 1.237,-0.914 1.521,-1.89 0.284,-0.983 0.161,-2.151 -0.361,-3.503 -0.53,-1.36 -1.536,-2.765 -3.027,-4.233 -1.498,-1.459 -3.71,-2.734 -6.652,-3.818 -1.775,-0.875 -3.818,-1.889 -6.115,-3.034 -2.305,-1.152 -4.671,-2.159 -7.106,-3.019 -2.428,-0.86 -4.848,-1.46 -7.252,-1.79 -2.412,-0.33 -4.602,-0.115 -6.584,0.653 -1.359,0.523 -2.596,1.244 -3.718,2.151 -1.114,0.914 -2.143,2.09 -3.088,3.534 -3.003,-2.197 -6.176,-4.033 -9.503,-5.508 -3.326,-1.475 -6.798,-2.505 -10.409,-3.089 -3.618,-0.583 -7.321,-0.699 -11.108,-0.345 -3.795,0.353 -7.621,1.275 -11.485,2.765 -1.459,0.561 -3.049,1.506 -4.755,2.827 -1.713,1.322 -3.188,2.981 -4.417,4.986 -1.237,2.005 -2.043,4.31 -2.42,6.914 -0.369,2.604 0.039,5.446 1.222,8.527 0.806,2.082 2.112,4.463 3.917,7.121 1.806,2.666 4.003,5.278 6.584,7.851 2.581,2.574 5.523,4.978 8.811,7.214 3.296,2.235 6.868,4.01 10.732,5.308 3.857,1.298 7.959,1.967 12.291,2.005 4.333,0.038 8.789,-0.83 13.383,-2.604" /></g><g
           transform="translate(837.2946,416.7458)"
           id="g146"><path
             id="path148"
             style="fill:#000000;fill-opacity:1;fill-rule:nonzero;stroke:none"
             d="m 0,0 c 1.667,2.066 3.457,3.472 5.362,4.21 1.913,0.737 3.657,0.914 5.232,0.522 1.305,-0.323 2.35,-1.083 3.149,-2.289 0.799,-1.206 0.968,-2.735 0.515,-4.579 -0.177,-0.706 -0.446,-1.444 -0.807,-2.22 -0.368,-0.776 -0.876,-1.575 -1.544,-2.389 1.575,1.229 3.672,2.366 6.292,3.419 2.627,1.052 5.439,1.882 8.442,2.496 3.004,0.615 6.031,0.976 9.088,1.083 3.05,0.116 5.854,-0.146 8.404,-0.775 2.881,-0.715 5.117,-1.998 6.699,-3.857 1.583,-1.867 1.974,-4.448 1.152,-7.766 -0.484,-1.952 -1.282,-3.918 -2.404,-5.885 -1.122,-1.974 -2.42,-3.902 -3.895,-5.784 -1.467,-1.883 -3.042,-3.703 -4.717,-5.447 -1.667,-1.751 -3.295,-3.38 -4.878,-4.893 -1.582,-1.506 -3.034,-2.897 -4.356,-4.156 -1.321,-1.26 -2.373,-2.305 -3.157,-3.15 -0.922,-0.699 -1.521,-1.613 -1.797,-2.758 -0.108,-0.43 -0.07,-0.845 0.122,-1.237 0.193,-0.391 0.584,-0.66 1.184,-0.814 0.376,-0.092 0.821,-0.161 1.336,-0.2 0.507,-0.038 1.176,0.1 1.998,0.415 3.203,0.361 6.537,0.983 10.009,1.851 3.472,0.876 6.845,1.867 10.118,2.989 3.28,1.121 6.322,2.304 9.133,3.541 2.812,1.237 5.186,2.389 7.122,3.473 0.53,0.268 1.029,0.437 1.505,0.491 0.477,0.054 0.907,0.039 1.283,-0.061 0.922,-0.223 1.56,-0.753 1.898,-1.591 0.345,-0.829 0.376,-1.789 0.107,-2.88 -0.414,-1.683 -1.405,-3.426 -2.973,-5.232 -1.567,-1.797 -3.718,-3.319 -6.437,-4.548 -3.649,-1.459 -6.991,-2.796 -10.025,-4.002 -3.035,-1.214 -6.1,-2.289 -9.18,-3.226 -3.089,-0.938 -6.338,-1.721 -9.749,-2.351 -3.411,-0.622 -7.329,-1.029 -11.746,-1.198 -1.521,-0.085 -2.896,-0.093 -4.117,-0.024 -1.222,0.07 -2.32,0.223 -3.296,0.469 -2.881,0.707 -4.786,2.028 -5.723,3.964 -0.937,1.928 -1.045,4.333 -0.338,7.213 0.1,0.377 0.2,0.746 0.315,1.091 0.115,0.346 0.253,0.73 0.415,1.153 0.522,1.651 1.429,3.388 2.712,5.208 1.282,1.813 2.742,3.641 4.378,5.485 1.637,1.844 3.342,3.657 5.109,5.439 1.767,1.782 3.411,3.48 4.932,5.093 1.521,1.613 2.811,3.065 3.879,4.356 1.068,1.29 1.721,2.404 1.951,3.326 0.2,0.815 0.139,1.567 -0.184,2.251 -0.323,0.684 -0.945,1.137 -1.867,1.368 -3.472,0.86 -7.029,0.637 -10.662,-0.654 -3.634,-1.29 -7.183,-3.111 -10.64,-5.454 -3.465,-2.343 -6.745,-4.924 -9.864,-7.728 -3.111,-2.804 -5.861,-5.324 -8.258,-7.551 -1.529,-1.521 -2.996,-3.196 -4.394,-5.009 -1.398,-1.821 -2.804,-3.488 -4.218,-5.009 -1.413,-1.528 -2.873,-2.719 -4.386,-3.587 -1.513,-0.868 -3.188,-1.068 -5.039,-0.615 -1.898,0.469 -3.242,1.437 -4.034,2.896 -0.798,1.468 -0.975,3.065 -0.545,4.802 0.231,0.929 0.976,2.327 2.243,4.202 1.276,1.874 2.843,4.025 4.709,6.445 1.859,2.42 3.926,5.009 6.192,7.766 2.266,2.751 4.525,5.478 6.776,8.182 2.25,2.696 4.394,5.239 6.422,7.62 2.028,2.382 3.71,4.41 5.047,6.1" /></g><g
           transform="translate(926.3909,394.9133)"
           id="g150"><path
             id="path152"
             style="fill:#000000;fill-opacity:1;fill-rule:nonzero;stroke:none"
             d="m 0,0 c -2.604,-3.71 -5.093,-7.329 -7.452,-10.87 -2.358,-3.541 -4.563,-6.806 -6.614,-9.795 -0.852,-1.236 -1.72,-2.688 -2.596,-4.34 -0.884,-1.659 -1.421,-3.15 -1.606,-4.479 -0.107,-0.776 -0.015,-1.413 0.284,-1.905 0.3,-0.499 0.868,-0.799 1.698,-0.914 1.16,-0.161 2.681,-0.023 4.548,0.423 1.874,0.445 3.91,1.09 6.123,1.943 2.204,0.845 4.547,1.852 7.029,3.004 2.473,1.144 4.916,2.358 7.328,3.633 2.405,1.276 4.717,2.566 6.937,3.864 2.213,1.299 4.187,2.505 5.923,3.619 0.976,0.491 1.851,0.676 2.627,0.568 0.938,-0.13 1.66,-0.653 2.151,-1.567 0.492,-0.922 0.653,-2.013 0.477,-3.288 -0.185,-1.275 -0.669,-2.535 -1.46,-3.779 -0.799,-1.245 -2.09,-2.397 -3.872,-3.442 -4.056,-2.773 -8.135,-5.362 -12.23,-7.79 -4.094,-2.419 -8.112,-4.501 -12.053,-6.237 -3.948,-1.737 -7.782,-3.027 -11.515,-3.857 -3.734,-0.837 -7.26,-1.021 -10.586,-0.561 -2.22,0.308 -4.033,0.861 -5.447,1.652 -1.413,0.791 -2.512,1.759 -3.28,2.912 -0.768,1.152 -1.26,2.435 -1.452,3.848 -0.2,1.414 -0.192,2.896 0.023,4.448 0.384,2.766 1.26,5.585 2.62,8.443 1.36,2.865 2.788,5.4 4.286,7.628 2.144,3.204 4.264,6.376 6.369,9.534 2.105,3.149 4.156,6.168 6.138,9.057 l -3.572,0.499 c -3.104,0.43 -5.17,1.229 -6.192,2.389 -1.03,1.16 -1.452,2.374 -1.268,3.649 0.077,0.553 0.346,1.206 0.822,1.959 0.469,0.753 1.099,1.429 1.89,2.028 0.791,0.591 1.721,1.076 2.789,1.429 1.068,0.361 2.235,0.453 3.51,0.276 l 8.973,-1.252 22.401,32.38 c 1.406,1.951 2.988,3.273 4.747,3.956 1.76,0.684 3.527,0.907 5.301,0.661 1.667,-0.238 3.127,-0.891 4.387,-1.974 1.259,-1.076 1.751,-2.643 1.467,-4.694 C 29.507,42.006 29.123,40.976 28.5,39.954 27.878,38.94 27.079,37.765 26.104,36.436 25.474,35.56 24.706,34.523 23.799,33.325 22.9,32.126 21.94,30.844 20.934,29.491 19.927,28.132 18.883,26.711 17.799,25.22 16.716,23.738 15.656,22.301 14.611,20.918 12.238,17.638 9.718,14.174 7.06,10.532 L 34.162,6.753 c 1.329,-0.185 2.535,-0.423 3.626,-0.715 1.091,-0.292 2.005,-0.706 2.75,-1.236 0.745,-0.523 1.291,-1.184 1.637,-1.959 0.338,-0.784 0.43,-1.791 0.261,-3.004 -0.092,-0.615 -0.269,-1.206 -0.553,-1.79 -0.277,-0.584 -0.715,-1.083 -1.306,-1.514 -0.6,-0.422 -1.375,-0.737 -2.336,-0.944 -0.96,-0.2 -2.174,-0.262 -3.626,-0.169 z" /></g><g
           transform="translate(980.849,393.6382)"
           id="g154"><path
             id="path156"
             style="fill:#000000;fill-opacity:1;fill-rule:nonzero;stroke:none"
             d="m 0,0 c -0.277,0.069 -0.53,0.108 -0.753,0.123 -0.223,0.008 -0.468,0.023 -0.753,0.038 -2.12,0.116 -4.125,-0.199 -6.015,-0.937 -1.89,-0.745 -3.641,-1.759 -5.247,-3.042 -1.613,-1.291 -3.065,-2.765 -4.355,-4.432 -1.291,-1.667 -2.459,-3.334 -3.503,-4.986 -1.037,-1.652 -1.921,-3.242 -2.651,-4.771 -0.722,-1.536 -1.283,-2.819 -1.674,-3.864 2.012,0.899 4.094,1.936 6.261,3.111 2.166,1.176 4.202,2.297 6.107,3.373 1.905,1.075 3.564,2.051 4.985,2.927 1.422,0.876 2.42,1.475 2.996,1.774 2.597,1.429 4.402,2.804 5.432,4.125 1.021,1.322 1.559,2.482 1.613,3.488 0.046,0.838 -0.184,1.521 -0.692,2.051 C 1.245,-0.492 0.661,-0.154 0,0 M 3.634,11.4 C 8.274,11.154 11.677,9.848 13.843,7.498 16.017,5.139 17,1.974 16.785,-1.99 16.662,-4.333 15.917,-6.76 14.55,-9.264 c -1.368,-2.505 -3.626,-5.009 -6.784,-7.498 -3.157,-2.497 -7.344,-4.986 -12.544,-7.483 -5.209,-2.496 -11.685,-4.939 -19.428,-7.328 0.192,-1.636 0.991,-2.958 2.397,-3.957 1.398,-0.998 3.303,-1.559 5.707,-1.689 2.566,-0.139 5.339,0.092 8.312,0.691 2.973,0.599 5.931,1.406 8.873,2.427 2.942,1.022 5.815,2.144 8.627,3.365 2.812,1.222 5.347,2.389 7.621,3.503 2.274,1.114 4.179,2.074 5.7,2.889 1.528,0.814 2.55,1.321 3.065,1.521 0.522,0.307 0.999,0.476 1.413,0.514 0.423,0.031 0.807,0.039 1.137,0.023 0.676,-0.038 1.222,-0.222 1.652,-0.553 0.43,-0.33 0.791,-0.714 1.076,-1.152 0.284,-0.43 0.468,-0.891 0.56,-1.375 0.085,-0.476 0.115,-0.884 0.1,-1.222 -0.031,-0.499 -0.115,-1.098 -0.261,-1.789 -0.154,-0.699 -0.615,-1.468 -1.391,-2.321 -0.291,-0.268 -1.267,-0.975 -2.926,-2.12 -1.66,-1.144 -3.788,-2.481 -6.392,-4.025 -2.604,-1.544 -5.615,-3.165 -9.042,-4.855 -3.418,-1.698 -7.036,-3.227 -10.831,-4.594 -3.803,-1.367 -7.736,-2.458 -11.815,-3.28 -4.079,-0.814 -8.074,-1.122 -11.984,-0.914 -3.35,0.176 -6.292,0.983 -8.819,2.404 -2.535,1.421 -4.648,3.273 -6.346,5.547 -1.705,2.274 -2.95,4.862 -3.748,7.766 -0.799,2.896 -1.114,5.908 -0.945,9.042 0.122,2.404 0.737,5.016 1.843,7.843 1.107,2.827 2.628,5.646 4.571,8.458 1.944,2.804 4.287,5.524 7.029,8.151 2.75,2.627 5.792,4.916 9.149,6.868 3.358,1.951 7.007,3.464 10.955,4.547 3.956,1.076 8.135,1.498 12.553,1.26" /></g><g
           transform="translate(1020.2733,368.5793)"
           id="g158"><path
             id="path160"
             style="fill:#000000;fill-opacity:1;fill-rule:nonzero;stroke:none"
             d="m 0,0 c -0.576,-1.306 -1.137,-2.819 -1.667,-4.548 -0.538,-1.721 -0.784,-3.257 -0.738,-4.594 0.024,-0.837 0.216,-1.505 0.561,-1.997 0.354,-0.492 1.007,-0.73 1.952,-0.699 1.175,0.038 2.634,0.43 4.371,1.183 1.743,0.753 3.618,1.736 5.623,2.95 2.005,1.206 4.087,2.589 6.253,4.141 2.159,1.544 4.31,3.149 6.445,4.816 2.128,1.66 4.164,3.319 6.1,4.97 1.936,1.66 3.664,3.181 5.193,4.571 0.43,0.407 0.952,0.699 1.567,0.891 0.607,0.185 1.137,0.285 1.583,0.3 1.121,0.031 2.051,-0.33 2.804,-1.091 0.752,-0.76 1.152,-1.782 1.19,-3.073 0.031,-1.175 -0.315,-2.496 -1.052,-3.979 -0.745,-1.475 -2.067,-2.942 -3.98,-4.402 -3.48,-3.411 -6.99,-6.652 -10.532,-9.733 -3.541,-3.073 -7.083,-5.8 -10.624,-8.174 -3.534,-2.381 -7.06,-4.294 -10.57,-5.746 -3.511,-1.452 -6.937,-2.228 -10.294,-2.335 -2.297,-0.069 -4.218,0.184 -5.777,0.745 -1.56,0.568 -2.812,1.375 -3.764,2.405 -0.961,1.037 -1.66,2.274 -2.09,3.718 -0.438,1.436 -0.684,2.973 -0.73,4.594 -0.084,2.734 0.231,5.561 0.953,8.465 0.722,2.904 1.605,5.577 2.65,8.02 1.821,4.417 3.672,8.819 5.554,13.183 1.882,4.371 3.603,8.373 5.17,11.999 l 23.745,54.896 c 0.945,2.212 2.251,3.787 3.926,4.74 1.682,0.945 3.388,1.444 5.124,1.498 1.728,0.053 3.326,-0.369 4.778,-1.276 1.46,-0.914 2.22,-2.427 2.282,-4.547 0.03,-1.007 -0.169,-2.082 -0.615,-3.211 -0.438,-1.137 -1.006,-2.359 -1.69,-3.665 C 32.387,72.342 30.82,69.077 29.007,65.213 27.194,61.349 25.251,57.147 23.184,52.607 21.11,48.067 18.99,43.334 16.824,38.433 14.65,33.517 12.529,28.739 10.463,24.083 8.396,19.428 6.461,15.019 4.655,10.847 2.858,6.676 1.298,3.065 0,0" /></g><g
           transform="translate(1067.6715,420.4409)"
           id="g162"><path
             id="path164"
             style="fill:#000000;fill-opacity:1;fill-rule:nonzero;stroke:none"
             d="m 0,0 c -0.131,1.283 -0.031,2.627 0.307,4.041 0.338,1.413 0.922,2.719 1.76,3.933 0.829,1.206 1.92,2.243 3.264,3.111 1.352,0.868 2.996,1.398 4.948,1.598 3.226,0.323 5.546,-0.077 6.952,-1.198 C 18.637,10.355 19.436,8.85 19.628,6.96 19.735,5.9 19.643,4.709 19.351,3.388 19.067,2.066 18.56,0.822 17.83,-0.354 17.108,-1.521 16.109,-2.535 14.849,-3.396 13.582,-4.248 12.038,-4.771 10.194,-4.955 6.745,-5.308 4.271,-5.009 2.766,-4.064 1.268,-3.119 0.346,-1.759 0,0 m -7.298,-19.712 c 0.791,1.651 1.767,2.881 2.927,3.672 1.152,0.791 2.374,1.252 3.657,1.375 2.112,0.215 4.002,-0.284 5.669,-1.49 1.667,-1.214 2.612,-2.874 2.827,-4.986 -0.008,-0.507 -0.023,-1.014 -0.062,-1.529 -0.03,-0.507 -0.161,-1.029 -0.391,-1.559 -0.63,-1.521 -1.145,-2.812 -1.552,-3.864 -0.4,-1.053 -0.761,-2.028 -1.091,-2.935 -0.33,-0.906 -0.653,-1.797 -0.952,-2.673 -0.308,-0.868 -0.684,-1.921 -1.122,-3.15 -0.523,-1.459 -1.122,-3.05 -1.798,-4.778 -0.668,-1.721 -1.29,-3.488 -1.866,-5.285 -0.577,-1.805 -1.045,-3.565 -1.406,-5.293 -0.361,-1.721 -0.477,-3.281 -0.331,-4.671 0.146,-1.506 0.623,-2.451 1.422,-2.85 0.799,-0.399 1.897,-0.522 3.288,-0.384 1.559,0.154 3.149,0.653 4.785,1.49 1.629,0.838 3.258,1.875 4.871,3.112 1.621,1.229 3.196,2.611 4.732,4.14 1.529,1.537 2.965,3.073 4.302,4.609 1.329,1.544 2.566,3.012 3.687,4.425 1.122,1.406 2.051,2.65 2.789,3.734 1.006,1.175 2.066,1.813 3.18,1.928 0.999,0.1 1.867,-0.269 2.597,-1.091 0.73,-0.83 1.16,-1.936 1.306,-3.326 0.123,-1.283 -0.054,-2.674 -0.553,-4.187 -0.492,-1.514 -1.398,-2.981 -2.72,-4.41 -2.543,-3.18 -5.162,-6.245 -7.843,-9.18 -2.689,-2.942 -5.47,-5.584 -8.358,-7.927 -2.881,-2.343 -5.823,-4.287 -8.812,-5.823 -2.996,-1.545 -6.084,-2.474 -9.256,-2.789 -4.51,-0.453 -8.174,0.346 -10.993,2.389 -2.82,2.051 -4.479,5.523 -4.971,10.425 -0.261,2.558 -0.153,5.101 0.323,7.628 0.476,2.52 1.106,4.986 1.874,7.398 0.769,2.412 1.598,4.74 2.497,6.998 0.899,2.259 1.636,4.394 2.22,6.422 0.208,0.753 0.584,1.913 1.129,3.488 0.538,1.575 1.122,3.18 1.744,4.816 0.707,1.929 1.46,3.972 2.251,6.131" /></g><g
           transform="translate(1132.0548,405.3918)"
           id="g166"><path
             id="path168"
             style="fill:#000000;fill-opacity:1;fill-rule:nonzero;stroke:none"
             d="m 0,0 c -3.127,-0.622 -6.1,-2.005 -8.927,-4.133 -2.827,-2.136 -5.239,-4.686 -7.244,-7.651 -2.005,-2.973 -3.487,-6.169 -4.463,-9.58 -0.976,-3.418 -1.137,-6.722 -0.507,-9.902 0.177,-0.876 0.438,-1.752 0.784,-2.627 0.345,-0.868 0.852,-1.637 1.528,-2.305 0.676,-0.661 1.56,-1.145 2.643,-1.437 1.091,-0.299 2.45,-0.284 4.102,0.047 3.18,0.637 6.115,2.005 8.804,4.109 2.688,2.105 4.962,4.633 6.829,7.575 1.867,2.935 3.203,6.1 4.01,9.487 0.814,3.38 0.899,6.638 0.277,9.764 -0.162,0.822 -0.408,1.69 -0.73,2.597 C 6.783,-3.15 6.322,-2.358 5.731,-1.682 5.139,-0.999 4.379,-0.484 3.449,-0.123 2.527,0.23 1.375,0.276 0,0 M 13.543,-31.788 C 9.994,-38.311 5.861,-43.404 1.145,-47.053 c -4.717,-3.656 -10.125,-6.092 -16.217,-7.305 -3.342,-0.669 -6.269,-0.753 -8.765,-0.254 -2.497,0.499 -4.617,1.429 -6.377,2.789 -1.751,1.36 -3.165,3.073 -4.232,5.147 -1.076,2.066 -1.852,4.332 -2.343,6.806 -0.561,2.796 -0.784,5.762 -0.669,8.896 0.115,3.134 0.469,6.215 1.068,9.241 0.4,1.967 0.73,3.596 0.983,4.901 0.254,1.307 0.461,2.42 0.623,3.334 0.153,0.915 0.299,1.714 0.414,2.397 0.123,0.676 0.254,1.391 0.392,2.128 0.139,0.745 0.308,1.606 0.507,2.589 0.208,0.983 0.492,2.251 0.868,3.811 l 13.359,58.214 c 0.192,0.776 0.53,1.559 1.03,2.343 0.499,0.784 1.114,1.521 1.828,2.205 0.722,0.684 1.529,1.275 2.428,1.767 0.898,0.491 1.843,0.837 2.834,1.037 2.52,0.507 4.395,0.361 5.601,-0.423 1.213,-0.783 1.966,-1.89 2.25,-3.311 0.216,-1.098 0.185,-2.351 -0.107,-3.749 -0.292,-1.398 -0.661,-2.711 -1.099,-3.94 -2.504,-8.604 -4.763,-17.285 -6.775,-26.043 -2.021,-8.765 -4.272,-17.476 -6.768,-26.134 1.482,1.729 3.08,3.426 4.801,5.116 1.721,1.683 3.549,3.242 5.485,4.686 1.936,1.445 3.995,2.712 6.169,3.803 2.182,1.091 4.478,1.874 6.891,2.358 1.697,0.338 3.495,0.354 5.385,0.046 1.882,-0.307 3.679,-0.944 5.385,-1.92 1.705,-0.968 3.196,-2.282 4.471,-3.941 1.275,-1.659 2.151,-3.695 2.627,-6.107 0.115,-0.546 0.169,-1.675 0.169,-3.388 0,-1.713 -0.115,-3.664 -0.33,-5.846 -0.223,-2.182 -0.569,-4.448 -1.037,-6.799 -0.477,-2.343 -1.099,-4.448 -1.867,-6.314 0.507,-0.53 1.075,-0.799 1.705,-0.815 0.63,-0.023 1.329,0.047 2.098,0.2 2.527,0.507 4.97,1.337 7.336,2.497 2.366,1.152 4.563,2.435 6.591,3.841 2.028,1.398 3.872,2.812 5.531,4.225 1.659,1.413 3.042,2.635 4.148,3.657 0.515,0.845 1.161,1.344 1.929,1.498 0.929,0.184 1.82,-0.07 2.673,-0.753 0.853,-0.684 1.406,-1.69 1.667,-3.004 0.254,-1.26 0.246,-2.566 -0.031,-3.902 -0.276,-1.337 -0.952,-2.881 -2.028,-4.64 -2.174,-1.975 -4.379,-3.872 -6.606,-5.685 -2.236,-1.813 -4.548,-3.465 -6.93,-4.94 -2.389,-1.474 -4.855,-2.765 -7.405,-3.871 -2.543,-1.107 -5.185,-1.936 -7.928,-2.482 -1.759,-0.353 -3.426,-0.43 -5.009,-0.23 -1.574,0.2 -3.019,0.707 -4.325,1.529" /></g><g
           transform="translate(1197.7823,426.5019)"
           id="g170"><path
             id="path172"
             style="fill:#000000;fill-opacity:1;fill-rule:nonzero;stroke:none"
             d="m 0,0 c -0.284,-0.031 -0.538,-0.084 -0.745,-0.146 -0.215,-0.069 -0.453,-0.146 -0.722,-0.23 -2.028,-0.653 -3.788,-1.66 -5.293,-3.019 -1.498,-1.368 -2.773,-2.935 -3.826,-4.709 -1.045,-1.775 -1.874,-3.673 -2.489,-5.693 -0.622,-2.02 -1.121,-3.987 -1.505,-5.9 -0.385,-1.913 -0.646,-3.718 -0.776,-5.4 -0.139,-1.69 -0.2,-3.096 -0.2,-4.21 1.559,1.559 3.142,3.265 4.747,5.132 1.606,1.866 3.104,3.641 4.51,5.323 1.398,1.683 2.604,3.188 3.618,4.51 1.014,1.329 1.736,2.235 2.166,2.727 1.921,2.258 3.127,4.187 3.619,5.777 0.484,1.598 0.576,2.873 0.268,3.833 C 3.111,-1.206 2.658,-0.645 1.997,-0.33 1.337,-0.008 0.668,0.1 0,0 m -0.661,11.953 c 4.425,1.414 8.067,1.406 10.932,-0.023 2.873,-1.429 4.909,-4.04 6.123,-7.82 0.714,-2.235 0.883,-4.771 0.499,-7.598 -0.392,-2.826 -1.613,-5.969 -3.68,-9.418 -2.066,-3.457 -5.093,-7.275 -9.072,-11.454 -3.972,-4.179 -9.157,-8.765 -15.549,-13.751 0.761,-1.459 1.975,-2.412 3.642,-2.842 1.667,-0.438 3.641,-0.292 5.938,0.446 2.45,0.783 4.955,1.989 7.528,3.602 2.566,1.614 5.04,3.419 7.429,5.416 2.381,2.005 4.67,4.072 6.86,6.215 2.197,2.143 4.156,4.133 5.884,5.984 1.729,1.844 3.165,3.419 4.302,4.725 1.137,1.306 1.913,2.143 2.328,2.504 0.376,0.477 0.753,0.807 1.137,0.984 0.384,0.184 0.737,0.322 1.052,0.43 0.646,0.199 1.222,0.222 1.744,0.069 0.515,-0.154 0.991,-0.384 1.413,-0.692 0.415,-0.307 0.753,-0.668 1.007,-1.09 0.253,-0.415 0.43,-0.784 0.53,-1.107 0.154,-0.476 0.284,-1.067 0.392,-1.766 0.107,-0.699 -0.054,-1.59 -0.469,-2.666 -0.184,-0.353 -0.845,-1.352 -1.99,-3.011 -1.137,-1.66 -2.658,-3.673 -4.54,-6.038 -1.882,-2.367 -4.125,-4.956 -6.729,-7.752 -2.597,-2.804 -5.424,-5.515 -8.489,-8.143 -3.073,-2.627 -6.361,-5.047 -9.879,-7.267 -3.526,-2.212 -7.152,-3.918 -10.878,-5.109 -3.195,-1.029 -6.23,-1.321 -9.103,-0.891 -2.865,0.431 -5.5,1.406 -7.897,2.935 -2.405,1.521 -4.486,3.495 -6.261,5.923 -1.782,2.427 -3.15,5.131 -4.102,8.12 -0.738,2.289 -1.091,4.947 -1.06,7.981 0.023,3.035 0.445,6.215 1.267,9.534 0.815,3.311 2.036,6.691 3.672,10.117 1.637,3.434 3.672,6.653 6.115,9.672 2.435,3.011 5.316,5.723 8.627,8.143 3.311,2.404 7.068,4.286 11.277,5.638" /></g><g
           transform="translate(1248.0614,446.0068)"
           id="g174"><path
             id="path176"
             style="fill:#000000;fill-opacity:1;fill-rule:nonzero;stroke:none"
             d="m 0,0 c 1.452,2.113 3.011,4.156 4.678,6.123 1.667,1.966 3.327,3.764 4.994,5.392 1.667,1.629 3.303,3.058 4.932,4.302 1.62,1.245 3.141,2.182 4.578,2.819 2.297,1.022 4.317,1.26 6.061,0.723 1.744,-0.546 3.188,-2.12 4.348,-4.725 0.254,-0.561 0.492,-1.175 0.73,-1.836 0.231,-0.661 0.43,-1.382 0.592,-2.166 0.338,-1.444 0.268,-3.35 -0.215,-5.708 -0.484,-2.358 -1.153,-4.886 -1.998,-7.59 -0.853,-2.704 -1.82,-5.477 -2.911,-8.319 -1.091,-2.85 -2.105,-5.47 -3.027,-7.867 -0.922,-2.404 -1.659,-4.463 -2.213,-6.176 -0.553,-1.713 -0.722,-2.804 -0.522,-3.265 0.184,-0.407 0.33,-0.676 0.453,-0.807 0.116,-0.13 0.385,-0.107 0.792,0.077 2.235,2.405 4.686,5.193 7.351,8.366 2.658,3.173 5.286,6.376 7.89,9.618 2.604,3.234 5.039,6.361 7.313,9.364 2.282,3.004 4.195,5.585 5.746,7.744 0.346,0.461 0.722,0.883 1.13,1.283 0.407,0.391 0.814,0.683 1.221,0.86 0.922,0.415 1.821,0.446 2.712,0.108 0.883,-0.346 1.552,-1.022 2.005,-2.044 0.53,-1.183 0.622,-2.742 0.299,-4.693 -0.322,-1.952 -1.306,-4.272 -2.927,-6.953 -1.29,-1.92 -2.734,-4.079 -4.332,-6.468 -1.598,-2.397 -3.273,-4.894 -5.032,-7.475 -1.759,-2.589 -3.557,-5.154 -5.4,-7.689 -1.844,-2.536 -3.665,-4.871 -5.462,-7.022 -1.806,-2.151 -3.557,-4.018 -5.27,-5.6 -1.713,-1.59 -3.311,-2.712 -4.794,-3.373 -3.526,-1.574 -6.545,-1.905 -9.065,-0.998 -2.512,0.899 -4.363,2.681 -5.538,5.339 -0.185,0.407 -0.3,0.722 -0.338,0.952 -0.638,2.412 -0.945,4.879 -0.907,7.406 0.038,2.527 0.254,5.009 0.638,7.452 0.391,2.435 0.86,4.801 1.429,7.106 0.568,2.304 1.067,4.455 1.498,6.452 0.43,1.998 0.714,3.795 0.86,5.393 0.146,1.59 -0.015,2.927 -0.492,4.002 -0.115,0.254 -0.276,0.485 -0.499,0.7 -0.215,0.207 -0.499,0.238 -0.86,0.076 C 9.841,0.607 8.927,-0.069 7.728,-1.152 6.53,-2.243 5.301,-3.519 4.064,-4.993 2.819,-6.461 1.698,-8.012 0.714,-9.649 c -0.99,-1.636 -1.536,-3.149 -1.651,-4.548 -0.185,-1.797 -1.548,-8.713 -2.016,-10.334 -0.476,-1.621 -1.122,-3.104 -1.928,-4.44 -0.815,-1.345 -1.737,-2.513 -2.758,-3.519 -1.022,-1.006 -2.044,-1.736 -3.065,-2.197 -1.176,-0.522 -2.244,-0.63 -3.211,-0.323 -0.961,0.308 -1.752,1.153 -2.359,2.535 -0.253,0.561 -0.476,1.299 -0.676,2.228 -0.192,0.922 -0.238,2.021 -0.13,3.288 0.146,2.151 1.362,9.498 1.585,14.921 -0.991,0.3 -1.92,0.784 -2.804,1.467 -0.891,0.676 -1.621,1.675 -2.212,3.012 -0.546,1.221 -0.768,2.397 -0.653,3.518 0.115,1.122 0.484,2.159 1.098,3.111 0.623,0.945 1.445,1.813 2.466,2.612 1.03,0.792 2.182,1.475 3.457,2.044 1.329,0.584 2.712,1.06 4.141,1.421 1.429,0.361 2.773,0.545 4.025,0.553 1.253,0.008 2.359,-0.177 3.319,-0.545 0.96,-0.369 1.636,-0.984 2.02,-1.852 0.07,-0.153 0.108,-0.384 0.123,-0.684 0.008,-0.307 0.016,-0.637 0.031,-0.998 0.008,-0.361 0.015,-0.699 0.031,-0.999 0.007,-0.299 0.046,-0.53 0.115,-0.676 0.046,-0.107 0.092,-0.146 0.146,-0.123 l 0.077,0.031 z" /></g><g
           transform="translate(1314.8108,478.0793)"
           id="g178"><path
             id="path180"
             style="fill:#000000;fill-opacity:1;fill-rule:nonzero;stroke:none"
             d="m 0,0 c -2.259,-1.344 -4.102,-3.203 -5.516,-5.577 -1.421,-2.374 -2.389,-4.97 -2.896,-7.774 -0.515,-2.812 -0.553,-5.67 -0.13,-8.574 0.43,-2.903 1.367,-5.585 2.827,-8.035 0.545,-0.914 1.213,-1.867 1.997,-2.865 0.791,-0.991 1.69,-1.829 2.704,-2.489 1.014,-0.669 2.143,-1.061 3.38,-1.168 1.237,-0.108 2.573,0.261 4.018,1.121 2.212,1.314 4.017,3.189 5.408,5.608 1.39,2.42 2.335,5.071 2.842,7.944 0.507,2.865 0.523,5.792 0.054,8.773 -0.469,2.973 -1.429,5.684 -2.888,8.142 -0.577,0.961 -1.23,1.921 -1.959,2.881 C 9.103,-1.045 8.25,-0.269 7.275,0.323 6.307,0.922 5.224,1.237 4.025,1.275 2.835,1.314 1.49,0.883 0,0 m -3.803,14.926 c 1.829,1.091 3.933,2.013 6.315,2.773 2.374,0.769 4.794,1.099 7.259,1.007 2.466,-0.1 4.856,-0.745 7.16,-1.944 2.313,-1.198 4.294,-3.196 5.954,-5.984 0.86,-1.444 1.644,-3.204 2.358,-5.285 0.722,-2.082 3.821,-14.201 3.78,-19.966 -0.131,-3.726 -0.646,-7.352 -1.544,-10.878 -0.899,-3.526 -2.228,-6.891 -4.003,-10.094 -1.774,-3.203 -3.971,-6.192 -6.591,-8.95 -2.619,-2.765 -5.708,-5.208 -9.272,-7.321 -1.344,-0.798 -3.065,-1.467 -5.155,-1.997 -2.097,-0.53 -4.317,-0.661 -6.652,-0.392 -2.343,0.269 -4.648,1.06 -6.93,2.374 -2.281,1.314 -4.263,3.388 -5.946,6.23 -1.144,1.921 -2.204,4.417 -3.188,7.482 -0.975,3.066 -1.674,6.407 -2.105,10.026 -0.422,3.618 -0.499,7.413 -0.23,11.384 0.277,3.972 1.099,7.874 2.458,11.715 1.368,3.834 3.373,7.467 6.015,10.901 2.651,3.427 6.092,6.399 10.317,8.919" /></g><g
           transform="translate(994.881,1535.3445)"
           id="g182"><path
             id="path184"
             style="fill:#000000;fill-opacity:1;fill-rule:nonzero;stroke:none"
             d="m 0,0 -14.538,-16.905 -17.057,-19.835 -96.581,-112.306 -1.681,-1.954 -1.425,-1.66 -0.964,-1.962 -1.134,-2.31 -57.665,-117.594 -13.603,12.833 -18.699,17.639 -9.113,-24.036 -10.695,-28.206 -90.262,-238.089 -101.01,-82.945 -5.503,-4.519 -4.688,-3.85 -1.225,-5.941 -1.439,-6.972 -38.918,-188.707 -1.583,-7.674 -1.349,-6.542 3.43,-5.732 4.024,-6.725 1.391,-2.327 4.018,-6.715 3.421,-5.72 6.387,-1.909 7.494,-2.24 207.857,-62.122 2.821,-0.843 2.401,-0.717 2.506,-10e-4 h 2.942 l 511.434,-0.087 3.504,-10e-4 h 2.986 l 2.811,1.009 3.299,1.183 187.724,67.372 7.138,2.562 6.084,2.184 3.13,5.655 3.673,6.635 0.641,1.158 3.616,6.533 3.077,5.56 -1.287,6.221 -1.51,7.302 -14.099,68.143 -0.497,2.4 -0.423,2.046 -0.902,1.884 -1.057,2.208 -76.634,160.244 -39.63,208.052 -3.753,19.699 -3.197,16.788 -16.8,-3.134 -19.714,-3.677 -19.066,-3.558 -40.681,129.792 -3.97,12.668 -3.384,10.795 -11.255,1.142 -13.208,1.339 -99.736,10.11 -100.458,146.403 -14.802,21.571 z m -1.531,-28.091 14.801,-21.571 104.959,-152.962 107.65,-10.912 13.208,-1.34 3.97,-12.667 45.234,-144.318 34.029,6.349 19.713,3.678 3.753,-19.699 40.046,-210.237 77.596,-162.257 1.057,-2.208 0.497,-2.398 14.098,-68.141 1.511,-7.302 -3.612,-6.525 -0.645,-1.165 -3.673,-6.635 -7.138,-2.562 -187.723,-67.372 -3.298,-1.183 -3.505,10e-4 -511.434,0.086 -2.941,0.001 -2.82,0.842 -207.856,62.122 -7.494,2.24 -4.016,6.712 -1.393,2.33 -4.024,6.725 1.583,7.675 38.918,188.706 1.438,6.972 5.502,4.518 104.543,85.846 91.883,242.364 10.694,28.205 21.942,-20.697 8.59,-8.104 67.907,138.481 1.134,2.31 1.678,1.952 96.581,112.305 z" /></g><g
           transform="translate(557.9066,698.9716)"
           id="g186"><path
             id="path188"
             style="fill:#000000;fill-opacity:1;fill-rule:nonzero;stroke:none"
             d="m 0,0 c 0.038,0.371 0.113,0.732 0.113,1.113 0,0.323 -0.068,0.627 -0.096,0.942 l 180.434,33.007 c 0.961,-1.489 2.516,-2.504 4.379,-2.657 l 10.727,-87.933 c -1.19,-0.365 -2.171,-1.074 -2.905,-2.042 z" /></g><g
           transform="translate(789.4668,1221.5214)"
           id="g190"><path
             id="path192"
             style="fill:#000000;fill-opacity:1;fill-rule:nonzero;stroke:none"
             d="m 0,0 20.177,-22.115 c -0.354,-0.754 -0.584,-1.575 -0.584,-2.463 0,-1.935 1.001,-3.568 2.448,-4.634 L -83.105,-218.744 c 0,0 82.031,217.41 83.105,218.744" /></g><g
           transform="translate(815.4991,1191.2058)"
           id="g194"><path
             id="path196"
             style="fill:#000000;fill-opacity:1;fill-rule:nonzero;stroke:none"
             d="m 0,0 c 0.036,0.004 0.069,0.016 0.105,0.021 l 39.996,-85.505 c -2.732,-1.972 -4.526,-5.161 -4.526,-8.787 0,-2.843 1.117,-5.409 2.905,-7.345 l -83.801,-93.216 c -1.053,0.56 -2.199,0.958 -3.474,0.958 -3.66,0 -6.566,-2.662 -7.246,-6.123 l -60.59,-11.94 c -0.13,0.382 -0.315,0.714 -0.517,1.056 z" /></g><g
           transform="translate(1213.3667,1298.6844)"
           id="g198"><path
             id="path200"
             style="fill:#000000;fill-opacity:1;fill-rule:nonzero;stroke:none"
             d="m 0,0 c 0.648,-2.21 2.608,-3.857 5.028,-3.857 0.019,0 0.036,0.011 0.056,0.012 L 51.24,-154.972 -108.084,10.417 c 0.115,0.164 0.238,0.319 0.335,0.496 z" /></g><g
           transform="translate(1315.2986,1145.0803)"
           id="g202"><path
             id="path204"
             style="fill:#000000;fill-opacity:1;fill-rule:nonzero;stroke:none"
             d="M 0,0 C 1.18,-2.011 3.202,-3.385 5.634,-3.641 L 40.552,-196.796 -43.914,-10.96 c 1.055,0.756 1.778,1.846 2.062,3.157 z" /></g><g
           transform="translate(924.8661,641.1481)"
           id="g206"><path
             id="path208"
             style="fill:#000000;fill-opacity:1;fill-rule:nonzero;stroke:none"
             d="m 0,0 c -0.867,1.277 -2.177,2.148 -3.755,2.432 v 209.509 c 2.147,0.201 4.098,1.008 5.697,2.275 L 186.789,53.85 c -0.503,-1.252 -0.796,-2.612 -0.796,-4.044 0,-0.904 0.143,-1.769 0.351,-2.609 z" /></g><g
           transform="translate(760.5992,639.9421)"
           id="g210"><path
             id="path212"
             style="fill:#000000;fill-opacity:1;fill-rule:nonzero;stroke:none"
             d="M 0,0 C -0.284,0.764 -0.692,1.459 -1.247,2.034 L 38.6,56.611 c 0.76,-0.36 1.586,-0.597 2.483,-0.597 2.383,0 4.414,1.435 5.329,3.477 L 153.797,0 Z" /></g><g
           transform="translate(553.6807,708.7184)"
           id="g214"><path
             id="path216"
             style="fill:#000000;fill-opacity:1;fill-rule:nonzero;stroke:none"
             d="m 0,0 101.032,163.369 c 1.456,-0.725 3.073,-1.17 4.81,-1.17 1.609,0 3.123,0.372 4.496,0.999 L 185.329,32.496 c -1.027,-1.055 -1.67,-2.486 -1.67,-4.074 0,-0.425 0.156,-0.799 0.243,-1.199 L 3.888,-5.704 C 3.238,-3.396 1.863,-1.41 0,0" /></g><g
           transform="translate(695.1726,976.2673)"
           id="g218"><path
             id="path220"
             style="fill:#000000;fill-opacity:1;fill-rule:nonzero;stroke:none"
             d="m 0,0 c 3.129,0.074 -0.064,-3.131 0,0 l 64.138,12.864 c 0.073,-0.784 0.164,-1.568 0.459,-2.264 l -94.214,-96.069 c -0.432,0.29 -0.904,0.522 -1.378,0.748 z" /></g><g
           transform="translate(1264.0607,1141.3676)"
           id="g222"><path
             id="path224"
             style="fill:#000000;fill-opacity:1;fill-rule:nonzero;stroke:none"
             d="m 0,0 c -0.606,-0.864 -1.041,-1.859 -1.041,-2.995 0,-1.115 0.423,-2.092 1.01,-2.948 l -165.21,-167.773 c -1.191,0.94 -2.621,1.561 -4.238,1.641 l -19.636,188.759 c 1.748,1.379 2.943,3.422 2.943,5.821 0,2.586 -1.386,4.754 -3.371,6.11 l 26.474,136.789 c 0.003,0 0.004,-0.002 0.006,-0.002 1.064,0 1.999,0.392 2.83,0.93 z" /></g><g
           transform="translate(1354.662,936.7602)"
           id="g226"><path
             id="path228"
             style="fill:#000000;fill-opacity:1;fill-rule:nonzero;stroke:none"
             d="m 0,0 c 0,-0.961 0.324,-1.815 0.769,-2.593 l -83.845,-72.183 c -0.644,0.509 -1.396,0.838 -2.232,1.004 v 270.265 c 0.065,0.013 0.131,0.023 0.195,0.039 L 2.284,4.253 C 0.936,3.286 0,1.785 0,0" /></g><g
           transform="translate(1446.2902,704.2687)"
           id="g230"><path
             id="path232"
             style="fill:#000000;fill-opacity:1;fill-rule:nonzero;stroke:none"
             d="M 0,0 C 0,-0.546 0.2,-1.025 0.31,-1.538 L -167.931,-62.229 -12.704,60.775 c 0.977,-0.463 2.04,-0.768 3.194,-0.768 0.928,0 1.796,0.221 2.617,0.528 L 4.949,7.008 C 2.075,5.949 0,3.243 0,0" /></g><g
           transform="translate(762.3973,983.7934)"
           id="g234"><path
             id="path236"
             style="fill:#000000;fill-opacity:1;fill-rule:nonzero;stroke:none"
             d="m 0,0 c 0.436,-0.313 0.832,-0.682 1.331,-0.897 l -21.366,-118.287 c -0.155,0.013 -0.289,0.09 -0.446,0.09 -2.155,0 -3.957,-1.218 -4.974,-2.951 l -66.661,19.047 c 0.031,0.328 0.099,0.644 0.099,0.98 0,2.307 -0.731,4.436 -1.957,6.195 z" /></g><g
           transform="translate(865.9546,1086.8671)"
           id="g238"><path
             id="path240"
             style="fill:#000000;fill-opacity:1;fill-rule:nonzero;stroke:none"
             d="m 0,0 77.932,-122.394 c -0.999,-1.05 -1.632,-2.454 -1.632,-4.018 0,-1.755 0.809,-3.282 2.032,-4.355 l -22.308,-81.586 c -0.611,0.106 -1.232,0.189 -1.874,0.189 -0.558,0 -1.094,-0.084 -1.629,-0.165 L -0.435,-0.135 C -0.292,-0.085 -0.14,-0.056 0,0" /></g><g
           transform="translate(1070.3594,1156.3441)"
           id="g242"><path
             id="path244"
             style="fill:#000000;fill-opacity:1;fill-rule:nonzero;stroke:none"
             d="m 0,0 c 0.246,0 0.454,0.117 0.696,0.141 l 19.575,-188.159 c -0.968,-0.539 -1.761,-1.275 -2.406,-2.169 l -216.109,127.129 c 0.41,1.145 0.674,2.362 0.674,3.648 0,0.445 -0.079,0.868 -0.131,1.3 L -5.82,2.941 C -4.441,1.194 -2.399,0 0,0" /></g><g
           transform="translate(953.676,961.8886)"
           id="g246"><path
             id="path248"
             style="fill:#000000;fill-opacity:1;fill-rule:nonzero;stroke:none"
             d="m 0,0 133.421,-2.043 c 0.69,-2.457 2.511,-4.346 4.942,-5.097 l 26.374,-253.504 c -0.591,-0.189 -1.154,-0.422 -1.696,-0.706 L -0.599,-4.348 c 0.514,0.871 0.889,1.83 0.889,2.915 C 0.29,-0.925 0.122,-0.47 0,0" /></g><g
           transform="translate(1128.2708,699.5588)"
           id="g250"><path
             id="path252"
             style="fill:#000000;fill-opacity:1;fill-rule:nonzero;stroke:none"
             d="m 0,0 c -1.651,1.26 -3.66,2.042 -5.863,2.183 l -26.311,252.943 c 0.77,0.203 1.46,0.505 2.112,0.925 l 164.956,-97.027 c -0.034,-0.244 -0.145,-0.461 -0.145,-0.714 0,-0.859 0.25,-1.639 0.612,-2.358 z" /></g><g
           transform="translate(1265.4641,1134.0117)"
           id="g254"><path
             id="path256"
             style="fill:#000000;fill-opacity:1;fill-rule:nonzero;stroke:none"
             d="m 0,0 c 0.566,-0.376 1.187,-0.624 1.877,-0.76 v -270.262 c -0.797,-0.158 -1.512,-0.466 -2.137,-0.936 l -164.212,96.6 c 0.459,0.974 0.761,2.033 0.761,3.182 0,1.657 -0.643,3.108 -1.549,4.351 z" /></g><g
           transform="translate(870.0676,1089.8126)"
           id="g258"><path
             id="path260"
             style="fill:#000000;fill-opacity:1;fill-rule:nonzero;stroke:none"
             d="m 0,0 216.727,-127.487 c -0.011,-0.161 -0.093,-0.297 -0.094,-0.461 l -133.992,2.053 c -1.069,1.417 -2.687,2.394 -4.599,2.394 -0.193,0 -0.358,-0.092 -0.547,-0.111 L -0.72,-0.771 C -0.462,-0.529 -0.232,-0.266 0,0" /></g><g
           transform="translate(747.2338,741.3505)"
           id="g262"><path
             id="path264"
             style="fill:#000000;fill-opacity:1;fill-rule:nonzero;stroke:none"
             d="m 0,0 c -0.575,0.551 -1.266,0.958 -2.027,1.24 v 111.539 c 1.015,0.711 1.791,1.676 2.194,2.875 l 161.985,5.47 c 0.146,-1.143 0.446,-2.229 0.919,-3.232 z" /></g><g
           transform="translate(909.3114,864.4853)"
           id="g266"><path
             id="path268"
             style="fill:#000000;fill-opacity:1;fill-rule:nonzero;stroke:none"
             d="m 0,0 -161.577,-5.455 c -0.05,1.484 -0.639,2.823 -1.594,3.829 L -141.564,118 c 2.191,0.317 4.011,1.527 5.165,3.306 L 1.865,5.521 C 0.768,3.937 0.121,2.041 0,0" /></g><g
           transform="translate(669.1862,876.9191)"
           id="g270"><path
             id="path272"
             style="fill:#000000;fill-opacity:1;fill-rule:nonzero;stroke:none"
             d="m 0,0 67.094,-19.169 c 0.48,-2.446 2.406,-4.288 4.902,-4.615 v -110.545 c -0.179,-0.067 -0.344,-0.139 -0.514,-0.221 L -3.419,-4.004 C -1.967,-2.979 -0.806,-1.598 0,0" /></g><g
           transform="translate(748.9538,737.6242)"
           id="g274"><path
             id="path276"
             style="fill:#000000;fill-opacity:1;fill-rule:nonzero;stroke:none"
             d="m 0,0 163.707,118.351 c 0.089,-0.083 0.19,-0.152 0.281,-0.233 L 55.36,-30.654 c -0.8,0.411 -1.67,0.697 -2.632,0.697 -1.252,0 -2.349,-0.479 -3.3,-1.148 l -50.162,27.79 c 0.482,0.851 0.832,1.783 0.832,2.831 C 0.098,-0.312 0.015,-0.168 0,0" /></g><g
           transform="translate(805.9397,705.7787)"
           id="g278"><path
             id="path280"
             style="fill:#000000;fill-opacity:1;fill-rule:nonzero;stroke:none"
             d="m 0,0 108.629,148.773 c 1.35,-0.806 2.883,-1.309 4.53,-1.463 V -62.198 c -1.407,-0.253 -2.611,-0.952 -3.476,-2.018 L 1.531,-4.297 c 0.007,0.115 0.068,0.213 0.068,0.33 C 1.599,-2.426 0.974,-1.046 0,0" /></g><g
           transform="translate(923.9198,873.9775)"
           id="g282"><path
             id="path284"
             style="fill:#000000;fill-opacity:1;fill-rule:nonzero;stroke:none"
             d="m 0,0 22.155,81.032 c 0.639,-0.239 1.313,-0.41 2.035,-0.41 0.649,0 1.246,0.174 1.829,0.369 L 188.674,-174.464 5.529,-15.576 c 0.938,1.606 1.513,3.45 1.513,5.444 C 7.042,-5.484 4.106,-1.548 0,0" /></g><g
           transform="translate(1132.4429,689.6516)"
           id="g286"><path
             id="path288"
             style="fill:#000000;fill-opacity:1;fill-rule:nonzero;stroke:none"
             d="M 0,0 297.681,77.781 139.591,-47.492 c -1.034,1.656 -2.789,2.819 -4.885,2.819 -2.281,0 -4.205,-1.34 -5.172,-3.244 L -0.801,-3.071 C -0.379,-2.115 -0.13,-1.078 0,0" /></g><g
           transform="translate(1429.3346,771.392)"
           id="g290"><path
             id="path292"
             style="fill:#000000;fill-opacity:1;fill-rule:nonzero;stroke:none"
             d="m 0,0 -297.167,-77.651 c -0.266,0.997 -0.662,1.934 -1.184,2.797 l 135.697,156.342 c 0.53,-0.177 1.073,-0.335 1.663,-0.335 1.327,0 2.503,0.533 3.435,1.337 L 0.394,2.776 C 0.141,2.023 -0.083,1.251 -0.083,0.413 -0.083,0.266 -0.009,0.145 0,0" /></g><g
           transform="translate(1096.412,1315.2766)"
           id="g294"><path
             id="path296"
             style="fill:#000000;fill-opacity:1;fill-rule:nonzero;stroke:none"
             d="m 0,0 -195.044,47.233 c -0.122,0.196 -0.239,0.393 -0.385,0.57 l 89.246,105.382 c 0.512,-0.163 1.03,-0.322 1.595,-0.322 0.366,0 0.686,0.138 1.032,0.208 z" /></g><g
           transform="translate(898.787,1359.5565)"
           id="g298"><path
             id="path300"
             style="fill:#000000;fill-opacity:1;fill-rule:nonzero;stroke:none"
             d="m 0,0 c 1.837,0.438 -0.547,-1.792 0,0 l 197.053,-48.287 c 0.303,-1.862 1.479,-3.418 3.183,-4.101 l -26.366,-136.23 c -0.735,0.239 -1.483,0.463 -2.298,0.463 -4.158,0 -7.528,-3.37 -7.528,-7.529 0,-0.3 0.136,-0.554 0.17,-0.845 l -191.56,-60.954 c -1.306,2.409 -3.474,4.248 -6.113,5.123 z" /></g><g
           transform="translate(855.4784,1088.2474)"
           id="g302"><path
             id="path304"
             style="fill:#000000;fill-opacity:1;fill-rule:nonzero;stroke:none"
             d="m 0,0 c 1.808,-1.346 4.026,-2.171 6.453,-2.171 0.56,0 1.097,0.084 1.633,0.165 l 52.955,-212.193 c -1.532,-0.539 -2.923,-1.374 -4.052,-2.494 l -138.665,116.116 c 0.207,0.689 0.43,1.376 0.43,2.132 0,2.152 -0.924,4.064 -2.371,5.436 z" /></g><g
           transform="translate(746.9285,732.7243)"
           id="g306"><path
             id="path308"
             style="fill:#000000;fill-opacity:1;fill-rule:nonzero;stroke:none"
             d="m 0,0 49.991,-27.695 c -0.635,-0.936 -1.093,-2.001 -1.093,-3.218 0,-1.612 0.653,-3.071 1.707,-4.13 L 10.781,-89.59 c -0.689,0.34 -1.439,0.542 -2.249,0.587 L -2.186,-1.128 C -1.368,-0.899 -0.631,-0.534 0,0" /></g><g
           transform="translate(1112.9233,684.6286)"
           id="g310"><path
             id="path312"
             style="fill:#000000;fill-opacity:1;fill-rule:nonzero;stroke:none"
             d="m 0,0 c 1.972,-2.735 5.164,-4.532 8.794,-4.532 3.707,0 6.972,1.864 8.93,4.699 l 130.352,-44.854 h -324.719 z" /></g><g
           transform="translate(1432.0348,777.5187)"
           id="g314"><path
             id="path316"
             style="fill:#000000;fill-opacity:1;fill-rule:nonzero;stroke:none"
             d="m 0,0 -158.445,79.961 c 0.01,0.135 0.078,0.251 0.078,0.389 0,0.96 -0.323,1.812 -0.767,2.59 l 83.846,72.183 c 0.906,-0.713 1.997,-1.205 3.239,-1.205 0.125,0 0.229,0.062 0.351,0.071 L 1.424,0.96 C 0.906,0.701 0.441,0.367 0,0" /></g><g
           transform="translate(893.4037,1349.7289)"
           id="g318"><path
             id="path320"
             style="fill:#000000;fill-opacity:1;fill-rule:nonzero;stroke:none"
             d="m 0,0 -32.067,-241.997 c -0.715,-0.039 -1.408,-0.14 -2.08,-0.311 l -40.048,85.609 c 0.948,1.04 1.562,2.395 1.562,3.914 0,1.05 -0.351,1.983 -0.835,2.836 z" /></g><g
           transform="translate(691.1707,971.9936)"
           id="g322"><path
             id="path324"
             style="fill:#000000;fill-opacity:1;fill-rule:nonzero;stroke:none"
             d="M 0,0 C 0.104,-0.043 0.23,-0.031 0.337,-0.068 L -28.884,-79.76 c -0.887,0.234 -1.802,0.399 -2.764,0.399 -5.996,0 -10.857,-4.861 -10.857,-10.857 0,-3.54 1.719,-6.653 4.339,-8.635 l -101.033,-163.368 c -0.237,0.118 -0.463,0.255 -0.711,0.356 l 36.183,176.917 c 3.045,0.208 0.459,-0.836 0,0 z" /></g></g></g></g></svg>
