<?xml version="1.0" encoding="UTF-8" standalone="no"?>
<svg
   xmlns:dc="http://purl.org/dc/elements/1.1/"
   xmlns:cc="http://creativecommons.org/ns#"
   xmlns:rdf="http://www.w3.org/1999/02/22-rdf-syntax-ns#"
   xmlns:svg="http://www.w3.org/2000/svg"
   xmlns="http://www.w3.org/2000/svg"
   viewBox="0 0 1365.3333 1365.3333"
   height="1365.3333"
   width="1365.3333"
   xml:space="preserve"
   id="svg2"
   version="1.1"><metadata
     id="metadata8"><rdf:RDF><cc:Work
         rdf:about=""><dc:format>image/svg+xml</dc:format><dc:type
           rdf:resource="http://purl.org/dc/dcmitype/StillImage" /></cc:Work></rdf:RDF></metadata><defs
     id="defs6"><clipPath
       id="clipPath18"
       clipPathUnits="userSpaceOnUse"><path
         id="path16"
         d="M 0,1024 H 1024 V 0 H 0 Z" /></clipPath></defs><g
     transform="matrix(1.3333333,0,0,-1.3333333,0,1365.3333)"
     id="g10"><g
       id="g12"><g
         clip-path="url(#clipPath18)"
         id="g14"><g
           transform="translate(512.3893,1011.7036)"
           id="g20"><path
             id="path22"
             style="fill:#eabf28;fill-opacity:1;fill-rule:nonzero;stroke:none"
             d="m 0,0 c -275.646,0 -499.906,-224.257 -499.906,-499.911 0,-275.646 224.26,-499.902 499.906,-499.902 275.654,0 499.911,224.256 499.911,499.902 C 499.911,-224.257 275.654,0 0,0" /></g><g
           transform="translate(512.3942,1023.4032)"
           id="g24"><path
             id="path26"
             style="fill:#322a2d;fill-opacity:1;fill-rule:nonzero;stroke:none"
             d="m 0,0 c -136.659,0 -265.135,-53.218 -361.761,-149.848 -96.632,-96.627 -149.848,-225.103 -149.848,-361.761 0,-136.651 53.216,-265.127 149.848,-361.758 96.626,-96.631 225.102,-149.844 361.761,-149.844 136.655,0 265.131,53.213 361.761,149.844 96.627,96.631 149.845,225.107 149.845,361.758 0,136.658 -53.218,265.134 -149.845,361.761 C 265.131,-53.218 136.655,0 0,0 m 0,-23.403 c 269.627,0 488.203,-218.577 488.203,-488.206 0,-269.623 -218.576,-488.203 -488.203,-488.203 -269.63,0 -488.203,218.58 -488.203,488.203 0,269.629 218.573,488.206 488.203,488.206" /></g><g
           transform="translate(307.2872,117.1927)"
           id="g28"><path
             id="path30"
             style="fill:#000000;fill-opacity:1;fill-rule:nonzero;stroke:none"
             d="m 0,0 c 2.018,2.61 4.38,5.61 7.071,9.02 2.695,3.402 5.532,6.956 8.496,10.663 2.968,3.699 5.966,7.423 8.979,11.168 3.022,3.748 5.867,7.233 8.55,10.465 C 29.322,39.074 25.524,36.825 21.702,34.571 17.878,32.316 14.251,30.178 10.82,28.151 7.38,26.124 4.256,24.308 1.435,22.685 c -2.827,-1.619 -5.106,-2.923 -6.839,-3.91 -1.371,-0.544 -2.708,-1.035 -4.017,-1.481 -1.314,-0.446 -2.539,-0.785 -3.695,-1.012 -1.148,-0.228 -2.209,-0.326 -3.17,-0.288 -0.967,0.036 -1.788,0.263 -2.469,0.684 -0.916,0.57 -1.511,1.205 -1.805,1.932 -0.301,0.724 -0.202,1.47 0.285,2.246 0.096,0.165 0.198,0.313 0.306,0.445 0.103,0.138 0.243,0.27 0.413,0.389 2.658,4.727 5.395,9.466 8.202,14.21 2.812,4.751 5.62,9.391 8.439,13.933 0.66,1.073 1.324,2.146 1.989,3.215 0.665,1.065 1.334,2.111 2.01,3.133 -3.107,-2.116 -6.398,-4.276 -9.874,-6.477 -3.48,-2.2 -6.99,-4.318 -10.552,-6.361 -3.55,-2.04 -7.08,-3.934 -10.592,-5.685 -3.513,-1.75 -6.866,-3.244 -10.053,-4.475 -3.191,-1.238 -6.147,-2.143 -8.864,-2.724 -2.72,-0.586 -5.061,-0.719 -7.018,-0.401 -1.7,0.298 -3.133,0.631 -4.289,1.011 -1.156,0.376 -2.126,0.814 -2.898,1.297 -1.173,0.722 -1.89,1.498 -2.171,2.312 -0.273,0.825 -0.203,1.58 0.219,2.263 0.502,0.808 1.37,1.44 2.597,1.894 1.221,0.454 2.6,0.541 4.132,0.264 1.853,-0.339 4.288,-0.061 7.286,0.834 3.005,0.9 6.337,2.191 9.986,3.88 3.653,1.685 7.522,3.691 11.609,6.007 4.087,2.316 8.145,4.715 12.175,7.2 4.037,2.485 7.912,4.962 11.645,7.431 3.733,2.468 7.081,4.714 10.04,6.74 2.969,2.024 5.42,3.721 7.373,5.096 1.949,1.375 3.167,2.229 3.641,2.567 1.078,0.719 2.159,1.053 3.253,1.008 1.095,-0.046 2.061,-0.335 2.907,-0.859 1.164,-0.722 1.784,-1.54 1.841,-2.456 0.066,-0.917 -0.405,-2.18 -1.411,-3.807 -1.005,-2.2 -1.983,-4.259 -2.92,-6.172 C 18.21,64.662 17.219,62.712 16.17,60.736 15.122,58.758 13.941,56.661 12.641,54.444 11.327,52.219 9.788,49.684 8.012,46.828 6.75,44.784 5.312,42.559 3.702,40.143 2.097,37.728 0.341,34.996 -1.549,31.945 6.729,36.601 14.04,40.7 20.393,44.248 c 6.35,3.532 11.766,6.439 16.249,8.71 4.483,2.274 8.066,3.868 10.746,4.789 2.68,0.92 4.475,1.098 5.383,0.536 l 0.343,-0.219 c 0.099,-0.053 0.198,-0.108 0.305,-0.148 0.108,-0.046 0.211,-0.1 0.31,-0.157 0.776,-0.484 1.09,-1.354 0.946,-2.614 -0.153,-1.246 -0.711,-2.653 -1.677,-4.209 -1.114,-1.508 -2.535,-3.37 -4.26,-5.578 -1.73,-2.205 -3.642,-4.624 -5.743,-7.255 C 40.89,35.482 38.668,32.717 36.337,29.815 33.991,26.903 31.664,24.022 29.36,21.166 27.048,18.313 24.819,15.53 22.668,12.822 20.512,10.114 18.589,7.65 16.9,5.416 16.57,5.037 16.273,4.628 16,4.191 15.733,3.753 15.452,3.307 15.17,2.848 14.651,2.006 14.138,1.148 13.636,0.265 13.136,-0.611 12.624,-1.473 12.104,-2.316 11.493,-3.291 10.841,-4.244 10.126,-5.172 9.42,-6.102 8.599,-6.828 7.661,-7.347 6.736,-7.873 5.647,-8.095 4.391,-8.009 3.145,-7.934 1.684,-7.377 0.036,-6.357 -0.847,-5.809 -1.334,-5.049 -1.446,-4.058 -1.549,-3.075 -1.074,-1.718 0,0" /></g><g
           transform="translate(366.2273,122.2203)"
           id="g32"><path
             id="path34"
             style="fill:#000000;fill-opacity:1;fill-rule:nonzero;stroke:none"
             d="m 0,0 c -1.672,0.644 -3.447,0.842 -5.317,0.603 -1.87,-0.236 -3.67,-0.809 -5.392,-1.722 -1.721,-0.908 -3.273,-2.089 -4.652,-3.542 -1.379,-1.453 -2.416,-3.084 -3.116,-4.9 -0.26,-0.678 -0.492,-1.44 -0.698,-2.283 -0.194,-0.838 -0.264,-1.672 -0.194,-2.502 0.07,-0.821 0.338,-1.589 0.796,-2.299 0.463,-0.711 1.231,-1.271 2.3,-1.684 1.63,-0.632 3.397,-0.81 5.283,-0.537 1.883,0.272 3.704,0.883 5.454,1.824 1.759,0.937 3.336,2.159 4.736,3.663 1.4,1.51 2.443,3.17 3.146,4.983 0.276,0.713 0.515,1.465 0.726,2.27 0.202,0.8 0.265,1.585 0.173,2.357 C 3.15,-3.002 2.861,-2.287 2.378,-1.627 1.899,-0.97 1.107,-0.43 0,0 m 6.403,8.327 c 1.358,-0.524 2.738,-1.264 4.154,-2.221 1.403,-0.95 2.605,-2.11 3.6,-3.472 0.981,-1.359 1.642,-2.91 1.972,-4.657 0.322,-1.746 0.095,-3.649 -0.702,-5.714 -0.412,-1.069 -1.027,-2.234 -1.84,-3.496 -0.814,-1.254 -1.797,-2.522 -2.94,-3.802 0.191,-0.566 0.483,-1.029 0.875,-1.387 0.397,-0.351 0.859,-0.632 1.396,-0.842 0.751,-0.286 1.655,-0.389 2.728,-0.314 1.078,0.074 2.221,0.268 3.444,0.573 1.222,0.302 2.481,0.702 3.773,1.186 1.292,0.479 2.526,0.987 3.711,1.511 1.185,0.524 2.271,1.032 3.261,1.531 0.991,0.495 1.821,0.928 2.485,1.284 0.347,0.152 0.698,0.157 1.057,0.02 0.497,-0.193 0.843,-0.622 1.037,-1.287 0.193,-0.673 0.106,-1.466 -0.248,-2.391 -0.362,-0.929 -1.048,-1.886 -2.064,-2.886 -1.024,-0.994 -2.531,-1.865 -4.537,-2.605 -1.21,-0.597 -2.605,-1.287 -4.173,-2.072 -1.574,-0.784 -3.183,-1.47 -4.848,-2.06 -1.655,-0.586 -3.307,-0.995 -4.945,-1.218 -1.643,-0.227 -3.141,-0.079 -4.492,0.446 -0.928,0.351 -1.771,0.851 -2.535,1.466 -0.763,0.623 -1.465,1.428 -2.109,2.411 -2.047,-1.499 -4.211,-2.75 -6.477,-3.758 -2.271,-1.006 -4.641,-1.709 -7.105,-2.108 -2.468,-0.397 -4.991,-0.476 -7.575,-0.236 -2.589,0.243 -5.202,0.871 -7.831,1.887 -0.999,0.383 -2.081,1.027 -3.25,1.927 -1.168,0.905 -2.171,2.036 -3.009,3.402 -0.847,1.37 -1.396,2.939 -1.652,4.72 -0.252,1.773 0.026,3.71 0.835,5.812 0.548,1.424 1.436,3.051 2.67,4.859 1.231,1.816 2.729,3.599 4.492,5.358 1.758,1.754 3.765,3.394 6.01,4.916 2.246,1.528 4.686,2.737 7.32,3.621 2.63,0.888 5.429,1.342 8.385,1.371 2.956,0.025 5.994,-0.566 9.127,-1.775" /></g><g
           transform="translate(401.4067,113.9352)"
           id="g36"><path
             id="path38"
             style="fill:#000000;fill-opacity:1;fill-rule:nonzero;stroke:none"
             d="M 0,0 C 1.135,1.408 2.357,2.366 3.658,2.869 4.961,3.372 6.151,3.496 7.225,3.224 8.117,3.01 8.831,2.489 9.375,1.664 9.916,0.842 10.036,-0.203 9.722,-1.462 9.603,-1.941 9.42,-2.444 9.177,-2.973 8.922,-3.505 8.574,-4.046 8.12,-4.603 c 1.078,0.838 2.507,1.614 4.294,2.332 1.788,0.719 3.707,1.284 5.755,1.701 2.051,0.421 4.116,0.665 6.201,0.743 2.081,0.079 3.995,-0.099 5.734,-0.532 1.969,-0.488 3.492,-1.363 4.569,-2.63 1.078,-1.271 1.35,-3.034 0.789,-5.297 -0.331,-1.329 -0.88,-2.671 -1.643,-4.012 -0.764,-1.351 -1.651,-2.662 -2.655,-3.951 -1.003,-1.28 -2.076,-2.523 -3.216,-3.712 -1.14,-1.197 -2.25,-2.308 -3.331,-3.34 -1.082,-1.027 -2.068,-1.972 -2.972,-2.835 -0.9,-0.859 -1.614,-1.569 -2.152,-2.148 -0.631,-0.478 -1.035,-1.097 -1.226,-1.881 -0.073,-0.294 -0.049,-0.575 0.083,-0.843 0.132,-0.268 0.397,-0.449 0.809,-0.557 0.256,-0.062 0.558,-0.107 0.909,-0.137 0.346,-0.024 0.805,0.07 1.363,0.286 2.186,0.244 4.458,0.673 6.831,1.263 2.366,0.599 4.669,1.272 6.899,2.035 2.237,0.768 4.314,1.574 6.23,2.415 1.919,0.846 3.537,1.635 4.858,2.374 0.363,0.182 0.701,0.298 1.028,0.334 0.322,0.034 0.619,0.029 0.875,-0.041 0.628,-0.152 1.065,-0.517 1.297,-1.086 0.231,-0.565 0.251,-1.222 0.07,-1.965 -0.281,-1.148 -0.958,-2.34 -2.027,-3.57 -1.069,-1.223 -2.535,-2.263 -4.392,-3.101 -2.489,-0.995 -4.769,-1.908 -6.841,-2.733 -2.069,-0.826 -4.161,-1.561 -6.259,-2.2 -2.105,-0.636 -4.322,-1.172 -6.65,-1.602 -2.325,-0.426 -5,-0.702 -8.013,-0.818 -1.037,-0.054 -1.978,-0.062 -2.807,-0.016 -0.835,0.05 -1.586,0.153 -2.251,0.318 -1.965,0.487 -3.265,1.383 -3.901,2.708 -0.639,1.313 -0.714,2.956 -0.236,4.917 0.071,0.26 0.137,0.512 0.219,0.747 0.079,0.235 0.175,0.5 0.281,0.784 0.356,1.128 0.979,2.312 1.854,3.555 0.875,1.234 1.87,2.481 2.985,3.74 1.114,1.255 2.278,2.494 3.484,3.711 1.205,1.215 2.324,2.369 3.361,3.472 1.04,1.102 1.919,2.093 2.65,2.973 0.731,0.883 1.172,1.639 1.329,2.271 0.141,0.552 0.095,1.065 -0.123,1.535 -0.224,0.467 -0.645,0.773 -1.276,0.929 -2.37,0.59 -4.793,0.438 -7.27,-0.442 -2.482,-0.879 -4.905,-2.121 -7.258,-3.724 -2.365,-1.594 -4.603,-3.356 -6.729,-5.271 -2.127,-1.912 -4,-3.629 -5.635,-5.149 -1.04,-1.039 -2.043,-2.179 -2.997,-3.418 -0.953,-1.243 -1.915,-2.378 -2.877,-3.414 -0.962,-1.044 -1.962,-1.853 -2.994,-2.447 -1.032,-0.595 -2.17,-0.732 -3.439,-0.422 -1.292,0.322 -2.208,0.982 -2.749,1.978 -0.545,0.998 -0.664,2.089 -0.372,3.273 0.162,0.636 0.67,1.589 1.532,2.865 0.872,1.28 1.937,2.745 3.212,4.401 1.271,1.648 2.675,3.413 4.224,5.296 1.543,1.875 3.083,3.737 4.618,5.578 1.541,1.842 3.002,3.579 4.385,5.202 C -2.059,-2.535 -0.913,-1.152 0,0" /></g><g
           transform="translate(462.1823,99.0425)"
           id="g40"><path
             id="path42"
             style="fill:#000000;fill-opacity:1;fill-rule:nonzero;stroke:none"
             d="m 0,0 c -1.78,-2.53 -3.475,-4.999 -5.082,-7.418 -1.611,-2.415 -3.113,-4.641 -4.513,-6.68 -0.581,-0.842 -1.172,-1.833 -1.77,-2.96 -0.603,-1.131 -0.97,-2.146 -1.098,-3.055 -0.07,-0.528 -0.008,-0.962 0.193,-1.301 0.207,-0.342 0.595,-0.544 1.161,-0.622 0.792,-0.108 1.829,-0.017 3.105,0.284 1.275,0.31 2.662,0.748 4.173,1.329 1.507,0.575 3.1,1.26 4.793,2.048 1.692,0.781 3.356,1.606 4.999,2.478 1.643,0.87 3.22,1.749 4.735,2.637 1.507,0.887 2.853,1.709 4.038,2.468 0.665,0.335 1.263,0.463 1.795,0.386 0.636,-0.089 1.127,-0.443 1.466,-1.067 0.334,-0.63 0.447,-1.37 0.322,-2.241 -0.124,-0.871 -0.454,-1.729 -0.994,-2.58 -0.546,-0.846 -1.421,-1.635 -2.639,-2.349 -2.765,-1.891 -5.548,-3.653 -8.343,-5.314 -2.796,-1.646 -5.536,-3.07 -8.224,-4.251 -2.692,-1.185 -5.305,-2.064 -7.852,-2.634 -2.551,-0.57 -4.954,-0.698 -7.221,-0.381 -1.518,0.208 -2.753,0.587 -3.718,1.129 -0.962,0.54 -1.714,1.197 -2.238,1.981 -0.524,0.788 -0.859,1.664 -0.991,2.629 -0.133,0.967 -0.128,1.978 0.016,3.035 0.26,1.886 0.864,3.806 1.788,5.758 0.93,1.957 1.9,3.683 2.923,5.202 1.466,2.184 2.911,4.352 4.343,6.503 1.441,2.15 2.84,4.21 4.19,6.18 l -2.436,0.338 c -2.121,0.293 -3.525,0.838 -4.223,1.635 -0.702,0.789 -0.995,1.614 -0.867,2.485 0.05,0.38 0.235,0.822 0.562,1.338 0.322,0.511 0.748,0.973 1.288,1.382 0.54,0.405 1.173,0.735 1.903,0.974 0.73,0.249 1.523,0.311 2.394,0.19 L -5.904,8.682 9.379,30.769 c 0.962,1.329 2.04,2.233 3.24,2.7 1.203,0.465 2.408,0.619 3.618,0.449 1.135,-0.161 2.13,-0.606 2.989,-1.346 0.859,-0.735 1.192,-1.803 0.999,-3.203 -0.096,-0.718 -0.359,-1.415 -0.785,-2.114 -0.425,-0.693 -0.966,-1.499 -1.635,-2.398 -0.429,-0.603 -0.954,-1.309 -1.568,-2.127 -0.616,-0.817 -1.273,-1.691 -1.957,-2.612 -0.686,-0.93 -1.4,-1.9 -2.139,-2.915 C 11.403,16.191 10.679,15.213 9.965,14.267 8.347,12.03 6.626,9.668 4.818,7.183 L 23.304,4.604 C 24.209,4.48 25.03,4.318 25.777,4.115 26.52,3.918 27.143,3.637 27.651,3.274 28.159,2.919 28.53,2.469 28.77,1.941 28.997,1.405 29.063,0.719 28.947,-0.111 28.886,-0.532 28.767,-0.937 28.572,-1.332 28.381,-1.729 28.084,-2.073 27.68,-2.365 27.267,-2.654 26.743,-2.864 26.082,-3.009 25.43,-3.146 24.605,-3.186 23.614,-3.124 Z" /></g><g
           transform="translate(499.3284,98.1723)"
           id="g44"><path
             id="path46"
             style="fill:#000000;fill-opacity:1;fill-rule:nonzero;stroke:none"
             d="m 0,0 c -0.186,0.049 -0.359,0.074 -0.513,0.086 -0.151,0 -0.317,0.013 -0.511,0.022 -1.448,0.081 -2.815,-0.138 -4.104,-0.636 -1.292,-0.512 -2.484,-1.202 -3.578,-2.077 -1.102,-0.883 -2.094,-1.886 -2.973,-3.022 -0.88,-1.139 -1.676,-2.274 -2.391,-3.407 -0.705,-1.121 -1.313,-2.208 -1.808,-3.252 -0.491,-1.044 -0.875,-1.919 -1.139,-2.633 1.371,0.611 2.791,1.321 4.269,2.121 1.478,0.806 2.865,1.565 4.166,2.3 1.3,0.735 2.432,1.399 3.402,1.997 0.965,0.6 1.651,1.008 2.043,1.21 1.77,0.979 3.005,1.912 3.707,2.816 0.697,0.9 1.065,1.692 1.098,2.377 0.032,0.574 -0.124,1.036 -0.471,1.4 C 0.851,-0.335 0.449,-0.104 0,0 M 2.481,7.777 C 5.643,7.609 7.968,6.717 9.445,5.11 10.928,3.504 11.6,1.346 11.447,-1.359 11.369,-2.956 10.861,-4.611 9.925,-6.321 8.995,-8.029 7.456,-9.734 5.296,-11.436 c -2.15,-1.705 -5.007,-3.402 -8.554,-5.102 -3.549,-1.705 -7.971,-3.369 -13.251,-4.999 0.128,-1.115 0.672,-2.019 1.631,-2.701 0.957,-0.681 2.254,-1.065 3.897,-1.151 1.75,-0.095 3.641,0.061 5.668,0.47 2.027,0.409 4.046,0.958 6.056,1.656 2.002,0.698 3.967,1.465 5.878,2.295 1.921,0.834 3.65,1.626 5.202,2.391 1.553,0.759 2.853,1.415 3.89,1.973 1.043,0.55 1.741,0.896 2.089,1.036 0.354,0.206 0.684,0.327 0.965,0.347 0.289,0.021 0.553,0.029 0.772,0.016 0.467,-0.02 0.838,-0.152 1.131,-0.376 0.294,-0.222 0.542,-0.487 0.735,-0.788 0.19,-0.289 0.318,-0.603 0.38,-0.933 0.057,-0.33 0.079,-0.606 0.07,-0.838 -0.024,-0.338 -0.083,-0.748 -0.181,-1.218 -0.103,-0.479 -0.421,-1.003 -0.945,-1.581 -0.199,-0.186 -0.863,-0.665 -1.999,-1.449 -1.13,-0.78 -2.584,-1.692 -4.363,-2.745 -1.772,-1.053 -3.828,-2.16 -6.163,-3.315 -2.334,-1.157 -4.802,-2.2 -7.391,-3.13 -2.596,-0.932 -5.276,-1.68 -8.058,-2.237 -2.782,-0.557 -5.507,-0.768 -8.174,-0.627 -2.287,0.124 -4.293,0.673 -6.015,1.643 -1.729,0.97 -3.174,2.232 -4.331,3.786 -1.159,1.548 -2.015,3.315 -2.555,5.296 -0.545,1.973 -0.764,4.026 -0.649,6.167 0.088,1.64 0.505,3.423 1.26,5.35 0.756,1.929 1.792,3.853 3.117,5.768 1.325,1.912 2.927,3.769 4.796,5.561 1.876,1.795 3.951,3.356 6.243,4.685 2.288,1.33 4.777,2.362 7.468,3.105 2.704,0.735 5.553,1.019 8.566,0.858" /></g><g
           transform="translate(526.2224,81.0788)"
           id="g48"><path
             id="path50"
             style="fill:#000000;fill-opacity:1;fill-rule:nonzero;stroke:none"
             d="m 0,0 c -0.392,-0.892 -0.772,-1.924 -1.135,-3.105 -0.367,-1.172 -0.537,-2.221 -0.504,-3.134 0.013,-0.57 0.148,-1.027 0.38,-1.362 0.243,-0.334 0.686,-0.495 1.333,-0.475 0.802,0.025 1.796,0.294 2.981,0.805 1.19,0.513 2.469,1.186 3.836,2.016 1.37,0.821 2.79,1.762 4.264,2.823 1.478,1.052 2.943,2.151 4.401,3.286 1.449,1.127 2.835,2.262 4.156,3.389 1.326,1.132 2.502,2.172 3.546,3.118 0.29,0.28 0.648,0.474 1.07,0.611 0.408,0.123 0.772,0.193 1.077,0.202 0.765,0.02 1.4,-0.224 1.912,-0.743 0.512,-0.521 0.789,-1.219 0.809,-2.099 0.025,-0.799 -0.21,-1.7 -0.715,-2.711 -0.508,-1.007 -1.407,-2.01 -2.716,-3.005 -2.373,-2.325 -4.767,-4.538 -7.183,-6.639 -2.415,-2.097 -4.83,-3.955 -7.249,-5.577 -2.411,-1.623 -4.813,-2.931 -7.208,-3.918 -2.395,-0.991 -4.731,-1.519 -7.022,-1.593 -1.569,-0.046 -2.877,0.128 -3.939,0.508 -1.065,0.388 -1.919,0.936 -2.567,1.642 -0.657,0.706 -1.135,1.549 -1.429,2.535 -0.297,0.978 -0.466,2.027 -0.495,3.134 -0.062,1.865 0.156,3.794 0.648,5.771 0.492,1.986 1.098,3.806 1.808,5.47 1.243,3.018 2.505,6.018 3.79,8.995 1.284,2.981 2.457,5.713 3.525,8.187 l 16.2,37.447 c 0.64,1.508 1.531,2.581 2.68,3.232 1.143,0.645 2.307,0.984 3.491,1.021 1.177,0.037 2.272,-0.248 3.258,-0.872 0.995,-0.619 1.514,-1.651 1.557,-3.1 0.02,-0.686 -0.113,-1.416 -0.418,-2.188 -0.301,-0.776 -0.685,-1.61 -1.155,-2.497 -0.892,-1.83 -1.962,-4.054 -3.2,-6.693 -1.239,-2.633 -2.56,-5.502 -3.971,-8.598 C 14.4,32.786 12.954,29.557 11.477,26.219 9.995,22.861 8.545,19.6 7.137,16.426 5.731,13.251 4.405,10.242 3.179,7.397 1.953,4.553 0.887,2.089 0,0" /></g><g
           transform="translate(558.556,116.4557)"
           id="g52"><path
             id="path54"
             style="fill:#000000;fill-opacity:1;fill-rule:nonzero;stroke:none"
             d="m 0,0 c -0.087,0.874 -0.021,1.791 0.211,2.757 0.226,0.962 0.627,1.854 1.2,2.68 C 1.977,6.262 2.72,6.968 3.637,7.562 4.558,8.153 5.68,8.515 7.009,8.653 9.21,8.867 10.795,8.599 11.752,7.831 12.71,7.063 13.256,6.035 13.387,4.746 13.462,4.025 13.4,3.211 13.198,2.311 13.003,1.411 12.657,0.561 12.162,-0.245 11.671,-1.037 10.989,-1.731 10.127,-2.321 9.263,-2.899 8.211,-3.253 6.955,-3.377 4.599,-3.621 2.914,-3.418 1.886,-2.775 0.862,-2.131 0.235,-1.202 0,0 m -4.979,-13.446 c 0.541,1.127 1.205,1.965 1.994,2.505 0.788,0.538 1.623,0.855 2.498,0.938 1.436,0.144 2.728,-0.199 3.864,-1.02 1.139,-0.825 1.784,-1.96 1.932,-3.398 -0.008,-0.346 -0.017,-0.694 -0.045,-1.045 -0.017,-0.346 -0.108,-0.701 -0.265,-1.065 -0.433,-1.035 -0.784,-1.915 -1.061,-2.638 -0.268,-0.713 -0.516,-1.383 -0.743,-1.997 -0.223,-0.615 -0.447,-1.226 -0.648,-1.82 -0.21,-0.595 -0.467,-1.313 -0.764,-2.152 -0.359,-0.994 -0.767,-2.08 -1.226,-3.261 -0.458,-1.172 -0.884,-2.378 -1.276,-3.604 -0.396,-1.235 -0.713,-2.432 -0.957,-3.613 -0.248,-1.171 -0.327,-2.238 -0.227,-3.183 0.098,-1.027 0.425,-1.676 0.97,-1.943 0.545,-0.277 1.295,-0.36 2.241,-0.265 1.065,0.108 2.151,0.446 3.266,1.016 1.111,0.573 2.221,1.28 3.324,2.121 1.106,0.838 2.175,1.784 3.223,2.828 1.044,1.049 2.027,2.098 2.936,3.142 0.907,1.053 1.75,2.056 2.518,3.022 0.764,0.954 1.4,1.804 1.902,2.543 0.686,0.801 1.408,1.238 2.168,1.317 0.681,0.067 1.276,-0.182 1.775,-0.743 0.496,-0.565 0.789,-1.325 0.888,-2.271 0.082,-0.875 -0.037,-1.82 -0.375,-2.852 -0.335,-1.032 -0.959,-2.039 -1.859,-3.01 -1.729,-2.168 -3.521,-4.26 -5.345,-6.267 -1.838,-2.002 -3.737,-3.806 -5.706,-5.404 -1.965,-1.597 -3.971,-2.922 -6.007,-3.97 -2.043,-1.057 -4.153,-1.689 -6.321,-1.905 -3.075,-0.308 -5.572,0.237 -7.496,1.632 -1.924,1.394 -3.055,3.769 -3.389,7.109 -0.178,1.746 -0.108,3.48 0.219,5.205 0.325,1.718 0.755,3.398 1.279,5.045 0.525,1.647 1.091,3.232 1.701,4.776 0.615,1.541 1.119,2.993 1.515,4.376 0.14,0.516 0.401,1.31 0.772,2.383 0.368,1.073 0.765,2.167 1.189,3.281 0.483,1.321 0.995,2.713 1.536,4.187" /></g><g
           transform="translate(602.4745,106.1903)"
           id="g56"><path
             id="path58"
             style="fill:#000000;fill-opacity:1;fill-rule:nonzero;stroke:none"
             d="m 0,0 c -2.134,-0.428 -4.162,-1.37 -6.093,-2.824 -1.923,-1.452 -3.571,-3.194 -4.938,-5.213 -1.37,-2.027 -2.381,-4.211 -3.046,-6.536 -0.664,-2.336 -0.776,-4.59 -0.343,-6.757 0.116,-0.599 0.297,-1.193 0.533,-1.792 0.235,-0.59 0.578,-1.115 1.045,-1.568 0.458,-0.454 1.06,-0.785 1.8,-0.983 0.746,-0.207 1.671,-0.195 2.799,0.033 2.167,0.434 4.173,1.366 6.005,2.803 1.834,1.433 3.382,3.158 4.658,5.169 1.275,1.998 2.183,4.162 2.737,6.469 0.557,2.308 0.61,4.529 0.189,6.659 C 5.235,-3.979 5.07,-3.384 4.847,-2.77 4.625,-2.151 4.31,-1.613 3.906,-1.147 3.506,-0.681 2.989,-0.33 2.349,-0.086 1.722,0.157 0.937,0.186 0,0 m 9.235,-21.685 c -2.419,-4.45 -5.239,-7.923 -8.458,-10.412 -3.216,-2.497 -6.903,-4.157 -11.06,-4.983 -2.279,-0.458 -4.272,-0.512 -5.978,-0.173 -1.705,0.343 -3.15,0.974 -4.347,1.903 -1.197,0.925 -2.164,2.094 -2.89,3.51 -0.736,1.407 -1.263,2.956 -1.597,4.64 -0.384,1.911 -0.536,3.929 -0.455,6.072 0.075,2.134 0.319,4.236 0.722,6.3 0.277,1.341 0.5,2.457 0.673,3.348 0.174,0.892 0.318,1.647 0.426,2.274 0.103,0.62 0.206,1.169 0.281,1.631 0.087,0.462 0.174,0.954 0.273,1.454 0.09,0.508 0.209,1.094 0.341,1.762 0.141,0.673 0.34,1.535 0.592,2.602 l 9.114,39.709 c 0.133,0.529 0.359,1.065 0.703,1.602 0.337,0.532 0.759,1.037 1.246,1.502 0.491,0.467 1.044,0.867 1.655,1.206 0.616,0.334 1.26,0.57 1.936,0.706 1.718,0.347 2.998,0.247 3.819,-0.285 0.83,-0.536 1.342,-1.292 1.536,-2.262 0.144,-0.752 0.124,-1.602 -0.075,-2.556 -0.198,-0.957 -0.449,-1.849 -0.747,-2.687 -1.709,-5.871 -3.248,-11.791 -4.623,-17.764 -1.375,-5.978 -2.911,-11.923 -4.62,-17.831 1.016,1.181 2.105,2.341 3.278,3.494 1.177,1.143 2.42,2.208 3.745,3.194 1.316,0.987 2.724,1.85 4.207,2.594 1.489,0.742 3.05,1.278 4.697,1.609 1.16,0.231 2.386,0.244 3.679,0.034 1.279,-0.211 2.505,-0.645 3.67,-1.31 1.159,-0.665 2.183,-1.557 3.045,-2.692 0.873,-1.13 1.47,-2.518 1.797,-4.164 0.078,-0.372 0.111,-1.144 0.111,-2.313 0,-1.168 -0.073,-2.501 -0.219,-3.988 -0.152,-1.486 -0.392,-3.029 -0.71,-4.635 -0.325,-1.602 -0.751,-3.034 -1.275,-4.31 0.347,-0.359 0.734,-0.545 1.164,-0.554 0.429,-0.016 0.908,0.03 1.432,0.133 1.721,0.346 3.391,0.916 5.004,1.709 1.614,0.785 3.113,1.659 4.496,2.617 1.383,0.954 2.643,1.916 3.773,2.886 1.131,0.962 2.077,1.792 2.828,2.489 0.351,0.578 0.793,0.921 1.317,1.024 0.635,0.124 1.242,-0.049 1.824,-0.516 0.583,-0.462 0.958,-1.152 1.14,-2.048 0.173,-0.859 0.165,-1.75 -0.024,-2.662 -0.187,-0.908 -0.649,-1.965 -1.384,-3.163 -1.486,-1.346 -2.988,-2.642 -4.508,-3.881 -1.523,-1.233 -3.101,-2.362 -4.727,-3.368 -1.627,-1.004 -3.306,-1.886 -5.048,-2.642 -1.735,-0.752 -3.538,-1.317 -5.409,-1.692 -1.201,-0.24 -2.336,-0.294 -3.419,-0.158 -1.073,0.137 -2.059,0.483 -2.951,1.045" /></g><g
           transform="translate(647.3104,120.5879)"
           id="g60"><path
             id="path62"
             style="fill:#000000;fill-opacity:1;fill-rule:nonzero;stroke:none"
             d="m 0,0 c -0.195,-0.021 -0.368,-0.059 -0.508,-0.095 -0.149,-0.05 -0.31,-0.103 -0.491,-0.161 -1.384,-0.447 -2.586,-1.131 -3.613,-2.06 -1.019,-0.929 -1.891,-2.002 -2.61,-3.212 -0.713,-1.209 -1.279,-2.502 -1.695,-3.881 -0.43,-1.378 -0.769,-2.721 -1.029,-4.025 -0.265,-1.304 -0.441,-2.535 -0.528,-3.682 -0.099,-1.156 -0.137,-2.114 -0.137,-2.874 1.062,1.062 2.14,2.226 3.237,3.501 1.094,1.271 2.118,2.481 3.075,3.633 0.955,1.144 1.78,2.172 2.47,3.076 0.692,0.908 1.184,1.523 1.477,1.857 1.309,1.54 2.135,2.857 2.469,3.943 0.331,1.089 0.392,1.961 0.186,2.613 C 2.121,-0.822 1.811,-0.438 1.362,-0.224 0.911,-0.005 0.454,0.07 0,0 M -0.451,8.157 C 2.567,9.119 5.053,9.114 7.005,8.141 8.966,7.162 10.353,5.383 11.182,2.807 11.671,1.284 11.781,-0.446 11.522,-2.378 11.257,-4.306 10.42,-6.449 9.015,-8.802 7.604,-11.16 5.54,-13.765 2.827,-16.613 c -2.713,-2.853 -6.25,-5.982 -10.609,-9.384 0.516,-0.995 1.345,-1.643 2.484,-1.94 1.136,-0.297 2.482,-0.193 4.051,0.31 1.672,0.533 3.38,1.354 5.13,2.452 1.756,1.102 3.44,2.336 5.07,3.695 1.626,1.371 3.188,2.778 4.682,4.24 1.498,1.465 2.832,2.819 4.013,4.083 1.18,1.259 2.159,2.332 2.935,3.224 0.775,0.892 1.304,1.462 1.586,1.71 0.259,0.322 0.516,0.548 0.779,0.668 0.261,0.124 0.504,0.224 0.715,0.292 0.441,0.137 0.838,0.153 1.192,0.05 0.348,-0.102 0.678,-0.264 0.962,-0.47 0.281,-0.211 0.516,-0.459 0.686,-0.747 0.173,-0.282 0.293,-0.536 0.363,-0.755 0.104,-0.327 0.194,-0.727 0.264,-1.207 0.079,-0.474 -0.037,-1.081 -0.318,-1.816 -0.123,-0.243 -0.577,-0.924 -1.358,-2.056 -0.772,-1.131 -1.808,-2.505 -3.096,-4.116 -1.284,-1.618 -2.816,-3.381 -4.586,-5.288 -1.775,-1.911 -3.704,-3.764 -5.796,-5.556 -2.094,-1.792 -4.336,-3.443 -6.734,-4.955 -2.407,-1.514 -4.88,-2.675 -7.422,-3.488 -2.184,-0.701 -4.253,-0.9 -6.21,-0.607 -1.956,0.293 -3.752,0.958 -5.387,2.003 -1.638,1.036 -3.059,2.386 -4.273,4.037 -1.213,1.659 -2.151,3.505 -2.799,5.54 -0.503,1.565 -0.739,3.377 -0.722,5.45 0.016,2.064 0.305,4.235 0.862,6.501 0.558,2.259 1.392,4.562 2.511,6.904 1.115,2.34 2.502,4.532 4.169,6.591 1.659,2.056 3.626,3.907 5.882,5.558 2.259,1.638 4.823,2.923 7.696,3.847" /></g><g
           transform="translate(681.6059,133.8957)"
           id="g64"><path
             id="path66"
             style="fill:#000000;fill-opacity:1;fill-rule:nonzero;stroke:none"
             d="m 0,0 c 0.991,1.44 2.056,2.836 3.191,4.177 1.14,1.338 2.27,2.568 3.41,3.675 1.135,1.114 2.254,2.084 3.36,2.935 1.107,0.851 2.148,1.491 3.126,1.924 1.569,0.697 2.942,0.858 4.132,0.491 1.193,-0.372 2.175,-1.445 2.968,-3.22 0.174,-0.384 0.335,-0.8 0.5,-1.255 0.157,-0.45 0.289,-0.942 0.4,-1.474 0.231,-0.987 0.182,-2.287 -0.149,-3.897 -0.329,-1.606 -0.784,-3.332 -1.361,-5.172 -0.579,-1.85 -1.243,-3.74 -1.983,-5.677 -0.747,-1.945 -1.435,-3.737 -2.064,-5.367 -0.631,-1.643 -1.135,-3.047 -1.511,-4.215 -0.376,-1.168 -0.495,-1.916 -0.354,-2.229 0.124,-0.273 0.222,-0.458 0.308,-0.549 0.075,-0.087 0.262,-0.07 0.538,0.054 1.527,1.643 3.196,3.542 5.015,5.705 1.813,2.163 3.609,4.35 5.38,6.563 1.779,2.205 3.439,4.339 4.991,6.388 1.556,2.051 2.861,3.81 3.918,5.283 0.235,0.313 0.495,0.599 0.772,0.876 0.276,0.264 0.557,0.462 0.833,0.582 0.628,0.284 1.243,0.309 1.85,0.074 C 37.873,5.437 38.327,4.978 38.636,4.28 39,3.472 39.062,2.411 38.843,1.077 c -0.223,-1.333 -0.892,-2.91 -1.999,-4.743 -0.879,-1.309 -1.861,-2.782 -2.956,-4.409 -1.089,-1.639 -2.233,-3.34 -3.43,-5.098 -1.201,-1.768 -2.427,-3.518 -3.686,-5.248 -1.255,-1.729 -2.498,-3.323 -3.723,-4.788 -1.235,-1.47 -2.429,-2.742 -3.597,-3.824 -1.169,-1.085 -2.258,-1.848 -3.269,-2.294 -2.407,-1.078 -4.464,-1.305 -6.185,-0.686 -1.713,0.616 -2.976,1.829 -3.777,3.642 -0.124,0.28 -0.206,0.49 -0.231,0.651 -0.434,1.643 -0.644,3.328 -0.615,5.049 0.024,1.726 0.169,3.418 0.429,5.087 0.273,1.659 0.59,3.273 0.978,4.843 0.384,1.572 0.727,3.042 1.024,4.404 0.289,1.362 0.487,2.589 0.582,3.678 C 8.492,-1.573 8.38,-0.66 8.054,0.074 7.98,0.248 7.864,0.404 7.715,0.548 7.566,0.689 7.374,0.71 7.129,0.603 6.712,0.413 6.094,-0.05 5.272,-0.784 4.454,-1.532 3.616,-2.403 2.775,-3.406 1.924,-4.405 1.159,-5.467 0.487,-6.585 c -0.677,-1.114 -1.049,-2.146 -1.122,-3.1 -0.133,-1.23 -1.057,-5.945 -1.376,-7.052 -0.326,-1.102 -0.767,-2.113 -1.321,-3.025 -0.548,-0.921 -1.18,-1.714 -1.878,-2.403 -0.697,-0.685 -1.396,-1.181 -2.094,-1.494 -0.8,-0.36 -1.527,-0.434 -2.187,-0.223 -0.656,0.21 -1.197,0.784 -1.606,1.729 -0.173,0.384 -0.33,0.887 -0.466,1.519 -0.129,0.628 -0.162,1.379 -0.087,2.242 0.098,1.466 0.928,6.477 1.082,10.18 -0.678,0.208 -1.308,0.532 -1.912,1 -0.611,0.462 -1.106,1.139 -1.511,2.056 -0.371,0.829 -0.524,1.63 -0.446,2.398 0.078,0.769 0.331,1.469 0.751,2.123 0.422,0.643 0.983,1.238 1.68,1.778 0.706,0.541 1.491,1.008 2.359,1.396 0.907,0.4 1.849,0.722 2.827,0.974 0.975,0.243 1.891,0.367 2.745,0.372 0.854,0.003 1.606,-0.121 2.267,-0.367 0.652,-0.257 1.11,-0.678 1.375,-1.265 0.045,-0.102 0.074,-0.264 0.082,-0.465 0.005,-0.211 0.012,-0.438 0.021,-0.682 0.008,-0.247 0.012,-0.479 0.024,-0.681 0.004,-0.206 0.03,-0.363 0.074,-0.463 0.034,-0.073 0.067,-0.098 0.104,-0.082 l 0.05,0.02 z" /></g><g
           transform="translate(727.1378,155.7705)"
           id="g68"><path
             id="path70"
             style="fill:#000000;fill-opacity:1;fill-rule:nonzero;stroke:none"
             d="m 0,0 c -1.54,-0.916 -2.799,-2.184 -3.761,-3.802 -0.97,-1.619 -1.63,-3.389 -1.977,-5.305 -0.352,-1.915 -0.376,-3.868 -0.087,-5.846 0.294,-1.986 0.929,-3.811 1.928,-5.483 0.371,-0.627 0.83,-1.275 1.362,-1.956 0.541,-0.673 1.152,-1.247 1.846,-1.697 0.689,-0.454 1.462,-0.722 2.308,-0.792 0.841,-0.079 1.751,0.177 2.74,0.759 1.507,0.9 2.738,2.18 3.686,3.827 0.95,1.652 1.594,3.46 1.942,5.417 0.341,1.956 0.355,3.954 0.036,5.99 C 9.702,-6.861 9.045,-5.016 8.05,-3.34 7.653,-2.68 7.213,-2.027 6.713,-1.371 6.213,-0.71 5.626,-0.182 4.962,0.222 4.305,0.627 3.562,0.846 2.745,0.87 1.936,0.9 1.02,0.603 0,0 m -2.593,10.185 c 1.247,0.742 2.68,1.374 4.306,1.891 1.623,0.524 3.273,0.746 4.954,0.684 1.681,-0.066 3.311,-0.508 4.885,-1.321 1.575,-0.822 2.93,-2.184 4.062,-4.087 0.586,-0.983 1.122,-2.183 1.609,-3.604 0.492,-1.42 2.605,-9.684 2.576,-13.619 -0.091,-2.543 -0.441,-5.012 -1.053,-7.418 -0.611,-2.407 -1.519,-4.703 -2.728,-6.887 -1.215,-2.187 -2.709,-4.227 -4.5,-6.105 -1.787,-1.886 -3.889,-3.555 -6.324,-4.996 -0.917,-0.545 -2.089,-0.999 -3.518,-1.361 -1.428,-0.364 -2.943,-0.451 -4.532,-0.265 -1.602,0.178 -3.175,0.719 -4.732,1.615 -1.556,0.9 -2.907,2.316 -4.053,4.251 -0.781,1.313 -1.507,3.013 -2.177,5.107 -0.665,2.089 -1.143,4.367 -1.432,6.836 -0.293,2.47 -0.343,5.058 -0.157,7.766 0.181,2.708 0.743,5.375 1.676,7.988 0.929,2.618 2.296,5.099 4.1,7.439 1.808,2.341 4.157,4.367 7.038,6.086" /></g><g
           transform="translate(258.2625,471.6614)"
           id="g72"><path
             id="path74"
             style="fill:#000000;fill-opacity:1;fill-rule:evenodd;stroke:none"
             d="M 0,0 C -2.957,12.786 -0.8,32.289 0.825,37.826 -16.209,52.93 -32.274,56.957 -62.556,50.932 -60.74,31.313 -52.405,33.086 -33.384,15.945 -20.498,7.331 -17.074,6.33 0,0 m 165.139,-58.915 c -22.926,0.136 -48.466,0.251 -71.157,5.935 -32.087,8.037 -60.796,23.224 -89.25,36.377 -54.981,25.417 -102.734,49.524 -128.064,43.806 0.614,-23.908 41.183,-50.335 60.294,-63.523 63.998,-44.173 128.358,-84.542 189.362,-97.303 181.69,-38.008 327.32,35.664 357.609,-60.746 12.511,-39.825 48.553,-22.975 63.933,5.023 15.227,27.716 23.944,75.86 16.543,107.403 C 538.19,29.807 396.889,17.78 321.165,48.163 289.976,60.677 255.039,77.227 224.681,87.486 195.058,97.496 148.856,98.895 157.583,59.613 166.323,25.15 239.413,35.153 301.326,4.513 319.568,-4.514 321.47,-7.678 334.813,-22.275 280.324,-42 246.957,-59.398 165.139,-58.915" /></g><g
           transform="translate(728.9016,603.3931)"
           id="g76"><path
             id="path78"
             style="fill:#000000;fill-opacity:1;fill-rule:evenodd;stroke:none"
             d="m 0,0 c 5.031,14.476 -87.009,180.24 -216.091,163.478 12.11,-8.978 52.536,-44.679 53.789,-55.954 0,0 -114.545,82.261 -218.103,19.626 32.572,-13.153 43.219,-22.549 43.219,-22.549 0,0 -107.468,-17.537 -141.291,-132.369 49.691,37.164 75.733,21.714 75.733,21.714 -45.635,-25.929 -64.632,-86.54 -57.047,-128.79 15.023,-9.371 30.732,-16.012 41.853,-20.878 32.439,-14.196 73.304,-24.647 108.977,-22.671 72.685,4.026 114.407,12.936 157.496,28.354 -44.061,39.782 -154.04,24.102 -172.657,72.174 -7.403,19.116 0.865,40.185 15.093,46.543 15.785,7.054 44.687,4.59 60.268,-0.675 30.359,-10.26 67.472,-27.354 98.661,-39.867 46.6,-18.698 123.68,-24.907 179.306,-50.212 23.073,13.34 36.788,22.653 48.673,44.619 12.852,5.249 28.957,42.719 -18.685,35.22 -22.197,12.018 -40.992,31.606 -64.636,33.587 -14.187,1.19 -31.72,-1.392 -53.214,-14.83 0,0 -14.102,24.005 -27.255,30.268 -13.154,6.263 -30.168,-5.953 -27.456,-23.489 3.41,-22.047 30.886,-30.313 45.515,-36.329 0,0 -46.347,-0.892 -54.533,29.313 -12.886,47.542 42.373,59.508 66.016,9.73 C -46.139,0.002 -13.777,3.55 0,0 m -11.477,-45.299 c -12.312,-7.647 -5.034,-19.811 -0.859,-23.361 4.176,-3.549 17.977,-7.905 24.607,-1.171 13.406,13.614 -11.436,32.179 -23.748,24.532" /></g><g
           transform="translate(85.9526,675.6147)"
           id="g80"><path
             id="path82"
             style="fill:#000000;fill-opacity:1;fill-rule:nonzero;stroke:none"
             d="M 0,0 29.137,62.696 45.626,55.032 35.842,33.979 86.054,10.643 76.486,-9.944 26.274,13.391 16.489,-7.663 Z m 39.716,78.987 13.309,18.392 20.806,-15.055 14.574,20.14 -20.807,15.055 13.37,18.476 L 140.556,92.876 127.186,74.4 103.052,91.865 88.478,71.724 112.613,54.26 99.304,35.868 Z m 59.486,75.624 45.37,40.497 10.466,-11.726 -28.356,-25.311 7.798,-8.736 26.287,23.463 9.987,-11.189 -26.286,-23.463 9.645,-10.807 29.199,26.063 11.082,-12.415 -46.213,-41.249 z m 95.341,74.134 61.067,32.41 8.524,-16.061 -20.507,-10.884 25.957,-48.908 -20.053,-10.643 -25.957,48.908 -20.507,-10.883 z m 80.478,38.112 21.775,6.425 7.268,-24.633 23.844,7.035 -7.268,24.633 21.873,6.454 20.814,-70.547 -21.873,-6.453 -8.43,28.573 -23.844,-7.035 8.431,-28.573 -21.775,-6.425 z m 89.359,20.813 22.575,3.234 10.43,-72.809 -22.574,-3.234 z m 44.469,-69.181 0.707,73.549 37.87,-0.363 c 7.02,-0.068 12.389,-0.719 16.076,-1.97 3.703,-1.234 6.678,-3.506 8.923,-6.78 2.246,-3.292 3.338,-7.292 3.293,-11.984 -0.039,-4.073 -0.946,-7.592 -2.721,-10.537 -1.758,-2.962 -4.178,-5.336 -7.26,-7.156 -1.946,-1.146 -4.626,-2.095 -8.006,-2.834 2.696,-0.933 4.656,-1.842 5.881,-2.761 0.816,-0.607 2.019,-1.921 3.592,-3.905 1.556,-1.984 2.603,-3.518 3.123,-4.601 l 10.839,-21.353 -25.681,0.247 -11.922,22.544 c -1.513,2.926 -2.865,4.822 -4.055,5.707 -1.633,1.145 -3.493,1.728 -5.565,1.748 l -2.003,0.019 -0.286,-29.789 z m 23.224,43.438 9.605,-0.093 c 1.027,-0.009 3.05,0.314 6.036,0.953 1.509,0.276 2.749,1.035 3.703,2.276 0.971,1.241 1.463,2.657 1.479,4.266 0.022,2.379 -0.713,4.219 -2.207,5.5 -1.495,1.299 -4.313,1.96 -8.473,2 l -9.999,0.095 z m 68.17,25.266 32.909,-7.62 c 6.472,-1.499 11.521,-3.6 15.102,-6.275 3.577,-2.691 6.296,-5.975 8.154,-9.867 1.837,-3.905 2.837,-8.161 2.993,-12.802 0.172,-4.644 -0.313,-9.399 -1.445,-14.287 -1.773,-7.656 -4.016,-13.392 -6.745,-17.207 -2.711,-3.818 -5.949,-6.794 -9.712,-8.928 -3.762,-2.134 -7.522,-3.266 -11.296,-3.395 -5.155,-0.177 -9.708,0.193 -13.645,1.104 l -32.909,7.621 z m 18.363,-21.334 -9.062,-39.13 5.438,-1.26 c 4.636,-1.074 8.059,-1.322 10.263,-0.759 2.19,0.581 4.138,2.011 5.847,4.304 1.713,2.309 3.221,6.319 4.549,12.057 1.758,7.589 1.725,13.062 -0.112,16.44 -1.836,3.378 -5.631,5.733 -11.386,7.065 z m 109.229,-20.275 49.103,-27.321 -7.692,-13.824 -29.174,16.232 -6.243,-11.221 24.955,-13.884 -7.242,-13.017 -24.955,13.885 -14.584,-26.213 -19.929,11.089 z m 103.842,-70.48 17.253,-14.755 -28.475,-33.297 c -2.815,-3.292 -6.006,-5.97 -9.538,-8.019 -3.543,-2.061 -7.348,-3.245 -11.428,-3.563 -4.079,-0.319 -7.696,0.115 -10.871,1.276 -4.414,1.635 -8.982,4.46 -13.679,8.477 -2.719,2.326 -5.519,5.058 -8.411,8.184 -2.891,3.126 -4.939,6.183 -6.131,9.163 -1.191,2.979 -1.8,6.271 -1.803,9.877 -0.016,3.618 0.597,6.811 1.826,9.591 1.971,4.464 4.13,8.069 6.478,10.815 l 28.475,33.297 17.254,-14.755 -29.154,-34.091 c -2.604,-3.045 -3.795,-6.15 -3.574,-9.289 0.223,-3.165 1.831,-6.026 4.824,-8.586 2.954,-2.526 6.005,-3.672 9.144,-3.427 3.113,0.243 6.007,1.914 8.655,5.011 z m 32.853,-32.279 13.391,-16.452 -14.087,-47.028 31.498,25.636 13.552,-16.651 -57.045,-46.43 -13.553,16.651 14.01,46.768 -31.324,-25.496 -13.488,16.572 z M 820.412,66.288 836.247,36.45 c 3.114,-5.868 4.84,-11.057 5.171,-15.514 0.315,-4.466 -0.38,-8.672 -2.099,-12.628 -1.742,-3.948 -4.299,-7.495 -7.699,-10.657 -3.393,-3.176 -7.301,-5.929 -11.732,-8.28 -6.942,-3.684 -12.743,-5.755 -17.412,-6.197 -4.661,-0.458 -9.03,0.034 -13.11,1.474 -4.078,1.44 -7.399,3.535 -9.972,6.299 -3.515,3.774 -6.223,7.454 -8.117,11.023 l -15.835,29.838 z m -4.058,-27.854 -35.48,-18.829 2.617,-4.931 c 2.231,-4.204 4.289,-6.95 6.159,-8.244 1.876,-1.272 4.233,-1.805 7.085,-1.59 2.866,0.222 6.882,1.714 12.084,4.475 6.882,3.652 10.991,7.266 12.336,10.869 1.345,3.601 0.632,8.011 -2.137,13.228 z" /></g><g
           transform="translate(522.2836,861.7181)"
           id="g84"><path
             id="path86"
             style="fill:#000000;fill-opacity:1;fill-rule:nonzero;stroke:none"
             d="m 0,0 c 96.644,-2.899 182.965,-44.698 244.399,-109.934 61.434,-65.235 97.982,-153.906 95.082,-250.551 -1.062,-35.392 -7.346,-69.398 -18.083,-101.306 -0.569,-1.695 -4.634,-10.218 -5.23,-11.901 l -4.761,13.149 c 0.286,0.826 0.253,0.738 0.533,1.566 10.501,31.106 16.648,64.268 17.683,98.788 2.819,93.923 -32.7,180.098 -92.402,243.495 -59.704,63.397 -143.593,104.019 -237.517,106.837 -93.923,2.819 -180.098,-32.7 -243.495,-92.403 -55.316,-52.093 -93.285,-122.603 -103.939,-202.123 l 0.032,0.004 c -1.882,-13.929 -2.914,-28.102 -3.044,-42.461 l -9.712,-1.473 c 0.006,0.962 -0.141,2.677 -0.126,3.634 0.177,11.937 0.96,23.746 2.32,35.398 0.02,0.3 0.043,0.576 0.07,0.807 9.933,84.036 49.466,158.609 107.638,213.393 C -185.316,-33.648 -96.645,2.901 0,0 m 219.602,-613.898 c -0.261,-0.227 -0.522,-0.455 -0.783,-0.681 -64.069,-55.556 -148.377,-88.131 -239.824,-85.387 -96.644,2.9 -182.964,44.699 -244.398,109.934 -38.568,40.954 -67.324,91.145 -82.671,146.747 -0.397,1.439 -2.662,11.032 -3.041,12.479 l 12.17,-8.459 c 14.818,-54.59 42.918,-103.865 80.72,-144.007 59.703,-63.396 143.593,-104.018 237.517,-106.837 90.572,-2.717 173.938,30.215 236.622,86.106 l 4.616,-9.045 c -0.109,-0.095 -0.816,-0.752 -0.928,-0.85" /></g><g
           transform="translate(109.3431,610.4973)"
           id="g88"><path
             id="path90"
             style="fill:#000000;fill-opacity:1;fill-rule:nonzero;stroke:none"
             d="m 0,0 -0.819,-2.98 -0.667,-2.497 -0.653,-2.504 -0.424,-1.669 9.566,-2.397 0.408,1.609 0.638,2.444 0.651,2.438 0.804,2.921 z m -8.855,-38.93 -0.373,-2.129 -0.436,-2.584 -0.422,-2.588 -0.392,-2.52 9.748,-1.489 0.383,2.458 0.411,2.527 0.426,2.523 0.373,2.129 z m -5.089,-39.572 -0.147,-1.846 -0.193,-2.658 -0.177,-2.663 -0.168,-2.795 9.848,-0.5 0.161,2.672 0.173,2.6 0.189,2.596 0.147,1.845 z m -1.325,-39.878 0.036,-2.255 0.059,-2.692 0.077,-2.689 0.08,-2.316 9.855,0.375 -0.078,2.253 -0.075,2.627 -0.059,2.63 -0.035,2.254 z m 2.424,-39.826 0.263,-2.358 0.308,-2.625 0.324,-2.621 0.298,-2.279 9.775,1.306 -0.289,2.218 -0.318,2.557 -0.3,2.564 -0.262,2.358 z m 6.196,-39.412 0.368,-1.773 0.546,-2.545 0.561,-2.539 0.662,-2.896 9.595,2.278 -0.634,2.776 -0.548,2.48 -0.533,2.484 L 3,-195.58 Z m 9.938,-38.635 0.981,-3.138 0.787,-2.447 0.8,-2.439 0.495,-1.477 9.341,3.16 -0.475,1.42 -0.782,2.382 -0.767,2.388 -0.964,3.08 z m 13.609,-37.526 0.67,-1.599 1,-2.342 1.013,-2.336 1.277,-2.885 8.986,4.062 -1.228,2.776 -0.989,2.28 -0.976,2.287 -0.671,1.599 z m 17.141,-36.043 1.147,-2.128 1.214,-2.219 1.228,-2.211 1.214,-2.158 8.579,4.865 -1.186,2.105 -1.198,2.159 -1.185,2.166 -1.147,2.127 z m 20.488,-34.213 1.615,-2.408 1.415,-2.083 1.428,-2.073 1.17,-1.677 8.071,5.667 -1.136,1.629 -1.394,2.023 -1.383,2.034 -1.581,2.359 z m 23.665,-32.129 2.032,-2.485 1.605,-1.932 1.616,-1.923 1.132,-1.33 7.492,6.412 -1.094,1.286 -1.578,1.877 -1.566,1.887 -1.996,2.439 z m 26.603,-29.741 0.66,-0.672 0.687,-0.691 v 2.695 z m 578.114,-17.602 1.437,1.299 1.852,1.693 1.842,1.705 2.205,2.069 -6.805,7.137 -2.12,-1.988 -1.798,-1.665 -1.809,-1.653 -1.437,-1.299 z m 28.353,28.077 1.464,1.602 1.682,1.862 1.672,1.872 1.844,2.093 -7.454,6.458 -1.767,-2.005 -1.632,-1.829 -1.643,-1.818 -1.464,-1.602 z m 25.566,30.637 1.465,1.947 1.501,2.018 1.487,2.028 1.458,2.011 -8.002,5.763 -1.424,-1.964 -1.452,-1.979 -1.465,-1.971 -1.465,-1.946 z m 22.528,32.903 1.482,2.42 1.304,2.16 1.292,2.17 1.061,1.806 -8.52,4.967 -1.03,-1.754 -1.261,-2.118 -1.273,-2.11 -1.452,-2.37 z m 19.308,34.928 0.379,0.769 1.109,2.282 1.095,2.291 1.081,2.298 0.635,1.369 -8.961,4.117 -0.61,-1.314 -1.056,-2.244 -1.068,-2.236 -1.082,-2.228 -0.379,-0.769 z m 15.881,36.619 0.59,1.566 0.887,2.4 0.872,2.405 1.067,3.01 -9.322,3.218 -1.026,-2.893 -0.852,-2.35 -0.866,-2.343 -0.59,-1.566 z m 12.288,37.95 0.752,2.806 0.653,2.504 0.637,2.511 0.457,1.844 -9.581,2.339 -0.441,-1.787 -0.623,-2.449 -0.638,-2.444 -0.735,-2.749 z m 8.595,38.988 0.335,1.984 0.421,2.589 0.405,2.595 0.402,2.694 -9.766,1.367 -0.385,-2.572 -0.395,-2.533 -0.411,-2.527 -0.335,-1.985 z m 4.828,39.605 0.127,1.743 0.177,2.662 0.161,2.667 0.154,2.895 -9.851,0.437 -0.149,-2.77 -0.157,-2.605 -0.173,-2.6 -0.127,-1.743 z m 1.065,39.885 -0.049,2.179 -0.076,2.689 -0.094,2.685 -0.099,2.398 -9.852,-0.437 0.097,-2.336 0.091,-2.622 0.075,-2.626 0.048,-2.179 z m -2.686,39.809 -0.262,2.232 -0.325,2.62 -0.341,2.615 -0.329,2.409 -9.767,-1.367 0.321,-2.347 0.333,-2.554 0.317,-2.558 0.262,-2.231 z m -6.457,39.371 -0.345,1.607 -0.561,2.539 -0.576,2.534 -0.72,3.058 -9.58,-2.338 0.691,-2.938 0.563,-2.473 0.548,-2.479 0.344,-1.608 z" /></g><path
           id="path92"
           style="fill:#000000;fill-opacity:1;fill-rule:nonzero;stroke:none"
           d="m 477.014,286.688 h 18.843 v -69.959 h -18.843 z" /><path
           id="path94"
           style="fill:#000000;fill-opacity:1;fill-rule:nonzero;stroke:none"
           d="m 502.97,286.688 h 18.843 V 216.729 H 502.97 Z" /><path
           id="path96"
           style="fill:#000000;fill-opacity:1;fill-rule:nonzero;stroke:none"
           d="m 528.926,286.688 h 18.843 v -69.959 h -18.843 z" /></g></g></g></svg>